<?xml version="1.0" encoding="UTF-8"?>
<svg id="Layer_1" data-name="Layer 1" xmlns="http://www.w3.org/2000/svg" viewBox="0 0 270 97.5">
  <defs>
    <style>
      .cls-1 {
        fill: #0c4e6d;
      }

      .cls-2 {
        fill: #177fb2;
      }

      .cls-3 {
        fill: #f4f4f4;
      }

      .cls-4 {
        opacity: .5;
      }

      .cls-5 {
        fill: #f5cd93;
      }

      .cls-6 {
        fill: #bababa;
      }

      .cls-7 {
        fill: #004d71;
      }

      .cls-8 {
        fill: #0089c5;
      }
    </style>
  </defs>
  <path class="cls-2" d="M128.9,97.5h-33.7c-9.5,0-8.5-7-10.3-13.8-1-4.1-5.9-6.7-7.2-8.4-5.2-7,19.9-5.1,23.8-5.1h29.8c5,0,28.9,7.8,21.3,9.7-3.6,.9-8.3,5.7-9.5,8.1-3.7,7.1-7.7,9.5-14.2,9.5Z"/>
  <path class="cls-1" d="M116.1,83.8c-12.3-.3-31.9-1.8-32.4-2.5-1.8-2.7-5-4.6-6-5.9-5.2-7,19.9-5.1,23.8-5.1h29.8c5,0,28.9,7.8,21.3,9.7-1.5,.4-3.2,1.4-4.8,2.7-.4,.3-13.7,1.5-31.7,1.1Z"/>
  <g>
    <path class="cls-5" d="M93.3,90.7c0,.7-.4,1.2-.9,1.2h-2.4c-.5,0-.9-.5-.9-1.2v-4c0-.7,.4-1.2,.9-1.2h2.4c.5,0,.9,.5,.9,1.2v4Z"/>
    <path class="cls-5" d="M99.7,90.7c0,.7-.4,1.2-.9,1.2h-2.4c-.5,0-.9-.5-.9-1.2v-4c0-.7,.4-1.2,.9-1.2h2.4c.5,0,.9,.5,.9,1.2v4Z"/>
    <path class="cls-5" d="M105.9,90.7c0,.7-.4,1.2-.9,1.2h-2.4c-.5,0-.9-.5-.9-1.2v-4c0-.7,.4-1.2,.9-1.2h2.4c.5,0,.9,.5,.9,1.2v4Z"/>
    <path class="cls-5" d="M113.8,89c0,.9-.7,1.6-1.6,1.6s-1.6-.7-1.6-1.6,.7-1.6,1.6-1.6c.8,0,1.6,.7,1.6,1.6Z"/>
    <path class="cls-5" d="M120.3,89c0,.9-.7,1.6-1.6,1.6s-1.6-.7-1.6-1.6,.7-1.6,1.6-1.6,1.6,.7,1.6,1.6Z"/>
    <path class="cls-5" d="M126.7,89c0,.9-.7,1.6-1.6,1.6s-1.6-.7-1.6-1.6,.7-1.6,1.6-1.6,1.6,.7,1.6,1.6Z"/>
    <path class="cls-5" d="M133.1,89c0,.9-.7,1.6-1.6,1.6s-1.6-.7-1.6-1.6,.7-1.6,1.6-1.6,1.6,.7,1.6,1.6Z"/>
  </g>
  <path class="cls-3" d="M270,40.8c0,12-72.2,39.8-142.6,39.8C57.1,80.7,0,62.8,0,40.8S57.1,1,127.4,1s142.6,28.6,142.6,39.8Z"/>
  <g class="cls-4">
    <path class="cls-6" d="M127.4,80.7c70.3,0,142.5-27.8,142.6-39.8H0c.1,22,57.1,39.8,127.4,39.8Z"/>
  </g>
  <polygon class="cls-2" points="253.1 28.1 206.9 28.1 224.3 0 253.1 0 253.1 28.1"/>
  <polygon class="cls-1" points="253.1 47.2 206.9 47.2 224.3 75.3 253.1 75.3 253.1 47.2"/>
  <polygon class="cls-2" points="253.1 41.6 206.9 41.6 224.3 53.4 255.4 53.4 253.1 41.6"/>
  <g>
    <path class="cls-8" d="M153.78,13.62c0,.07,.25,7.62-1.04,15.41-1.77,10.7-5.52,16.76-11.13,18.01-.29,.06-.57,.11-.85,.14-.89,.09-1.73-.02-2.48-.32-3.61-1.43-4.79-7.2-5.94-12.77-.89-4.34-2.01-9.75-4.24-9.83-1.19,.1-3.37,1.22-7.64,6.88-3.36,4.45-6.4,8.85-9.34,13.1-8.57,12.4-15.34,22.19-23.06,22.94-4.13,.38-8.07-1.84-12.07-6.8l1.58-.7c3.66,4.55,7.08,6.61,10.44,6.29,6.66-.65,13.55-10.61,21.52-22.13,2.95-4.26,6-8.67,9.37-13.14,3.78-5.01,6.59-7.4,8.99-7.64,.18-.02,.36-.02,.53-.02,3.5,.13,4.46,4.8,5.68,10.73,1.04,5.07,2.23,10.82,5.21,12.01,.45,.18,.92,.24,1.44,.19,.17-.02,.34-.04,.53-.09,9.66-2.15,11.03-23.88,10.74-32.08l1.78-.19Z"/>
    <g>
      <path class="cls-7" d="M138.77,47.03s-.04-.01-.06-.02c-.03,0-.06-.02-.1-.03-.02,0-.04-.01-.06-.02-.03-.01-.07-.02-.1-.04-.02,0-.03-.01-.05-.02-.05-.02-.1-.04-.14-.05,0,0,0,0,0,0,0,0-.02,0-.03-.01-.05-.02-.1-.04-.14-.06-.02,0-.04-.02-.06-.03-.04-.02-.07-.03-.11-.05-.02,0-.04-.02-.05-.03-.04-.02-.07-.04-.11-.06-.02,0-.03-.02-.05-.03-.04-.02-.07-.04-.11-.06-.02,0-.03-.02-.05-.03-.04-.02-.07-.05-.11-.07-.01,0-.03-.02-.04-.03-.04-.03-.08-.05-.11-.08-.01,0-.02-.02-.03-.02-.04-.03-.08-.06-.12-.09,0,0-.02-.01-.03-.02-.04-.03-.08-.06-.12-.09,0,0-.01-.01-.02-.02-.04-.03-.08-.07-.12-.1,0,0-.01-.01-.02-.02-.04-.04-.08-.07-.12-.11,0,0,0,0-.01-.01-.04-.04-.08-.08-.13-.12,0,0,0,0,0,0-.04-.04-.08-.09-.13-.13,0,0,0,0,0,0-.04-.05-.08-.09-.13-.14,0,0,0,0,0,0-1.44-1.62-2.33-4.19-3.04-7.05,0,0,0,0,0,0-.04-.17-.08-.34-.13-.52,0,0,0,0,0-.01-.04-.17-.08-.34-.12-.51,0,0,0-.01,0-.02-.04-.17-.08-.34-.12-.51,0,0,0-.02,0-.03-.04-.17-.07-.34-.11-.51,0,0,0-.02,0-.03-.04-.17-.07-.34-.11-.51,0-.01,0-.02,0-.04-.04-.17-.07-.33-.11-.5,0-.01,0-.03,0-.04-.03-.16-.07-.32-.1-.48,0-.05-.02-.09-.03-.14-.02-.1-.04-.21-.06-.31,0-.04-.02-.09-.03-.13-.4-1.95-.85-4.11-1.42-5.91,0,0,0,0,0,0-.02-.06-.04-.11-.05-.17,0,0,0-.01,0-.02-.02-.05-.03-.1-.05-.16,0,0,0-.02,0-.02-.02-.05-.03-.1-.05-.15,0,0,0-.02,0-.03-.02-.05-.03-.09-.05-.14,0-.01,0-.02-.01-.03-.02-.05-.03-.09-.05-.13,0-.01,0-.02-.01-.04-.02-.04-.03-.09-.05-.13,0-.01,0-.03-.01-.04-.02-.04-.03-.08-.05-.12,0-.01-.01-.03-.02-.04-.02-.04-.03-.08-.05-.12,0-.01-.01-.03-.02-.04-.02-.04-.03-.08-.05-.12,0-.01-.01-.03-.02-.04-.02-.04-.03-.08-.05-.11,0-.01-.01-.02-.02-.04-.02-.04-.03-.08-.05-.11,0-.01-.01-.02-.02-.03-.02-.04-.03-.07-.05-.11,0-.01-.01-.02-.02-.03-.02-.04-.04-.07-.05-.11,0,0,0-.02-.01-.03-.02-.04-.04-.08-.06-.11,0,0,0,0,0-.01-.12-.22-.24-.42-.36-.6,0,0,0,0,0,0-.02-.03-.04-.06-.06-.09,0,0-.01-.02-.02-.02-.02-.03-.04-.05-.06-.07,0-.01-.02-.02-.02-.03-.02-.02-.04-.04-.05-.07,0-.01-.02-.02-.03-.03-.02-.02-.03-.04-.05-.06-.01-.01-.02-.02-.03-.03-.02-.02-.03-.04-.05-.06-.01-.01-.02-.02-.03-.03-.02-.02-.03-.03-.05-.05-.01-.01-.02-.02-.03-.03-.02-.02-.03-.03-.05-.05-.01-.01-.02-.02-.04-.03-.02-.01-.03-.03-.05-.04-.01,0-.02-.02-.04-.03-.02-.01-.03-.03-.05-.04-.01,0-.03-.02-.04-.03-.02-.01-.03-.02-.05-.03-.01,0-.03-.02-.04-.02-.02-.01-.03-.02-.05-.03-.01,0-.03-.02-.04-.02-.02,0-.03-.02-.05-.03-.01,0-.03-.01-.04-.02-.02,0-.03-.02-.05-.02-.01,0-.03-.01-.04-.02-.02,0-.03-.01-.05-.02-.02,0-.03,0-.05-.01-.02,0-.03-.01-.05-.01-.1-.02-.19-.04-.29-.04-1.01,.09-2.75,.91-5.88,4.65,.22,.96,.42,1.93,.61,2.85,1.15,5.57,2.33,11.33,5.94,12.77,.21,.08,.42,.15,.64,.2,3.17,.78,6.34,1.55,9.51,2.33,0,0-.02,0-.03,0-.03,0-.06-.02-.09-.02Z"/>
      <path class="cls-7" d="M85.67,65.81s.09,.02,.14,.03c.06,.01,.11,.02,.17,.03,.05,0,.09,.02,.14,.03,.08,.01,.16,.03,.24,.04,0,0,.02,0,.03,0,.05,0,.09,.01,.14,.02,.03,0,.05,0,.08,0,.03,0,.07,0,.1,0,.05,0,.1,0,.15,.01,.02,0,.04,0,.06,0,.03,0,.07,0,.1,0,.05,0,.11,0,.16,0,.02,0,.04,0,.06,0,.03,0,.06,0,.1,0,.06,0,.12,0,.18,0,.05,0,.09,0,.14,0,0,0,0,0,0,0,0,0,.02,0,.03,0,.1,0,.19-.01,.29-.02,0,0,0,0,0,0,.1-.01,.2-.02,.31-.04,.03,0,.07-.01,.1-.02,.07-.01,.14-.02,.21-.03,.05,0,.1-.02,.14-.03,.06-.01,.11-.02,.17-.03,.02,0,.04-.01,.06-.02,.04,0,.07-.02,.11-.03,.05-.01,.1-.02,.15-.04,.09-.02,.19-.05,.28-.08,.02,0,.04-.01,.07-.02,.04-.01,.09-.03,.13-.04,.04-.01,.08-.02,.12-.04,.01,0,.03,0,.04-.01,.09-.03,.19-.07,.28-.1,.02,0,.04-.02,.07-.03,.08-.03,.16-.06,.24-.1,.02,0,.04-.02,.05-.02,.09-.04,.18-.08,.28-.12,.02-.01,.05-.02,.07-.03,0,0,0,0,0,0,.06-.03,.12-.06,.18-.09,.08-.04,.15-.08,.23-.11,.04-.02,.08-.04,.12-.06,0,0,0,0,0,0,.08-.04,.17-.09,.25-.14,.02,0,.03-.02,.05-.03,.02,0,.03-.02,.05-.03,.12-.07,.23-.13,.35-.21,.02-.02,.05-.03,.07-.05,.09-.06,.19-.12,.28-.18,.09-.06,.18-.11,.26-.17,0,0,0,0,0,0,0,0,.01,0,.02-.01,.09-.06,.19-.13,.28-.19,.03-.02,.06-.04,.09-.07,.04-.03,.08-.06,.12-.09,.03-.02,.06-.04,.09-.06,.03-.02,.06-.05,.09-.07,.09-.07,.19-.14,.28-.21,.02-.01,.04-.03,.06-.04,.07-.06,.15-.11,.22-.17,0,0,0,0,.01,0,.03-.03,.07-.05,.1-.08,.07-.05,.13-.11,.2-.16,.03-.03,.06-.05,.09-.08,.04-.03,.07-.06,.11-.09,0,0,0,0,0,0,.08-.07,.17-.14,.25-.22,.02-.02,.05-.04,.07-.06,.02-.02,.04-.04,.07-.06,.07-.06,.15-.13,.22-.19,.05-.04,.1-.09,.15-.13,.07-.07,.15-.13,.22-.2,.05-.04,.1-.09,.14-.13,.09-.08,.18-.17,.26-.25,.01-.01,.03-.03,.04-.04,.02-.02,.04-.04,.06-.05,.12-.11,.23-.23,.35-.34,.01-.01,.03-.03,.04-.04,.03-.03,.06-.06,.09-.09,.08-.08,.15-.16,.23-.24,.04-.04,.08-.08,.11-.12,.01-.01,.02-.02,.03-.03,.07-.08,.15-.15,.22-.23,.05-.05,.1-.1,.15-.16,.08-.08,.15-.16,.23-.24,0,0,0,0,0,0,.05-.05,.09-.1,.14-.15,0,0,0,0,0,0,.06-.07,.12-.13,.19-.2,.05-.06,.11-.12,.16-.18,.06-.07,.13-.14,.19-.22,.05-.06,.1-.11,.15-.17,.07-.08,.14-.16,.21-.24,.05-.05,.09-.1,.14-.16,.11-.13,.23-.26,.34-.4,.03-.04,.07-.08,.1-.12,.08-.1,.16-.19,.24-.29,.05-.06,.1-.12,.15-.18,.06-.08,.13-.16,.19-.23,.05-.06,.1-.12,.14-.18,0,0,0,0,.01-.01,.07-.08,.13-.16,.2-.24,.04-.05,.08-.09,.12-.14,.02-.02,.03-.04,.05-.06,.06-.08,.13-.16,.19-.23,.05-.07,.11-.13,.16-.2,.06-.08,.13-.16,.19-.24,.05-.06,.09-.12,.14-.18,0,0,.01-.02,.02-.03,.06-.08,.13-.16,.19-.25,.05-.07,.11-.14,.16-.21,.06-.08,.13-.17,.19-.25,.03-.04,.07-.09,.1-.13,.02-.03,.04-.05,.06-.08,.07-.08,.13-.17,.2-.25,.05-.07,.11-.14,.16-.21,.07-.09,.13-.18,.2-.27,.03-.03,.05-.07,.08-.1,.03-.04,.05-.07,.08-.11,.07-.09,.13-.18,.2-.26,.04-.06,.08-.11,.13-.17,.01-.01,.02-.03,.03-.04,.07-.1,.15-.19,.22-.29,.04-.06,.09-.12,.13-.17,0,0,0-.01,.01-.02,.08-.11,.16-.22,.24-.32,.04-.05,.08-.11,.12-.16,.1-.13,.19-.26,.29-.39,0-.01,.01-.02,.02-.03,.02-.02,.04-.05,.05-.07,.25-.34,.49-.68,.74-1.02,0,0,.01-.02,.02-.03,.02-.03,.05-.07,.07-.1,.09-.13,.18-.26,.28-.39,.01-.02,.03-.04,.04-.05,.03-.04,.05-.07,.08-.11,.08-.12,.17-.24,.26-.36,.04-.06,.08-.11,.12-.17,.08-.12,.17-.24,.25-.36,.03-.04,.06-.08,.09-.13,.01-.02,.02-.03,.04-.05,.08-.12,.17-.23,.25-.35,0,0,0,0,0,0,.04-.06,.08-.12,.12-.18,.08-.12,.17-.24,.25-.35,0-.01,.02-.02,.02-.03,.03-.05,.07-.1,.1-.15,.08-.12,.17-.24,.25-.36,0-.01,.02-.02,.03-.04,.03-.05,.06-.09,.1-.14,.08-.12,.17-.24,.25-.36,.02-.03,.04-.06,.06-.09,.02-.03,.04-.06,.06-.09,.09-.14,.19-.27,.28-.41,.01-.02,.02-.03,.03-.05,.02-.03,.05-.07,.07-.1,.08-.12,.17-.24,.25-.36,.04-.06,.09-.13,.13-.19,.1-.14,.2-.29,.3-.43,.02-.04,.05-.07,.07-.11,.12-.17,.24-.35,.36-.52h0s.02-.04,.03-.05c.24-.35,.48-.7,.72-1.05,.02-.02,.03-.05,.05-.07,1.41-2.03,2.84-4.1,4.31-6.19,1.62-2.29,3.29-4.61,5.05-6.95,.05-.06,.09-.12,.14-.18,.08-.1,.16-.21,.23-.31,0,0,0,0,0,0,.05-.07,.1-.13,.15-.2,.07-.09,.15-.19,.22-.28,0,0,0,0,0,0,.04-.05,.08-.1,.12-.15,.08-.11,.17-.21,.25-.32,0,0,0,0,0,0,.05-.06,.1-.12,.15-.18,0,0,0,0,0,0,.09-.11,.18-.22,.27-.33,0,0,0,0,0,0,0,0,0,0,0,0,2.29-2.79,4.21-4.5,5.9-5.25,0,0,0,0,0,0,.02,0,.03-.01,.05-.02,.08-.04,.17-.07,.25-.1,.02,0,.04-.02,.06-.02h0c.05-.02,.11-.04,.16-.06,.03,0,.05-.02,.08-.03,0,0,0,0,0,0,.11-.03,.22-.07,.32-.09h0s.09-.02,.14-.03h0s.05-.01,.08-.02h0s.1-.02,.14-.03h0s.05,0,.07-.01h0s.08,0,.11-.01c.03,0,.06,0,.1-.01,.08,0,.15-.01,.23-.02,0,0,0,0,.01,0h0s.08,0,.12,0c0,0,.02,0,.02,0h0s.09,0,.14,0h0c.06,0,.12,0,.18,.01,0,0,0,0,0,0,.01,0,.02,0,.04,0,.04,0,.09,0,.13,.01,0,0,.01,0,.02,0,.01,0,.02,0,.03,0,.04,0,.08,.01,.12,.02,0,0,.01,0,.02,0,0,0,0,0,0,0,.01,0,.02,0,.03,0,.04,0,.07,.02,.11,.02,.01,0,.03,0,.04,0l-9.51-2.33c-.06-.01-.12-.03-.18-.04-.02,0-.05,0-.08-.01-.03,0-.07-.01-.1-.02,0,0,0,0,0,0-.04,0-.09,0-.13-.01-.01,0-.03,0-.04,0-.06,0-.12,0-.19-.01-.05,0-.09,0-.14,0-.02,0-.03,0-.05,0-.03,0-.06,0-.09,0,0,0-.01,0-.02,0,0,0-.01,0-.02,0-.07,0-.14,0-.21,.01-.07,0-.14,.02-.21,.03-.02,0-.04,0-.07,.01-.05,0-.1,.02-.15,.03-.03,0-.05,.01-.08,.02-.05,.01-.1,.02-.14,.03-.03,0-.05,.01-.08,.02-.02,0-.03,0-.05,.01-.03,0-.05,.02-.08,.02-.04,.01-.08,.02-.12,.04-.04,.01-.08,.03-.12,.04-.04,.01-.08,.03-.12,.04-.04,.01-.08,.03-.12,.05-.04,.02-.08,.03-.12,.05-.04,.02-.08,.03-.12,.05-.04,.02-.08,.04-.13,.06-.02,0-.03,.02-.05,.02-.03,.01-.05,.03-.08,.04-.03,.02-.07,.03-.1,.05-.05,.02-.09,.05-.14,.08-.03,.02-.06,.03-.1,.05-.05,.03-.1,.06-.15,.09-.03,.02-.06,.03-.09,.05-.06,.03-.11,.07-.17,.11-.03,.02-.05,.03-.08,.05,0,0,0,0,0,0-.07,.05-.14,.09-.22,.14-.02,.01-.03,.02-.05,.03-.07,.05-.14,.1-.22,.15-.02,.01-.04,.03-.06,.04-.07,.05-.14,.11-.22,.16-.02,.01-.04,.03-.06,.04-.07,.05-.13,.1-.2,.16-.02,.02-.04,.03-.06,.05-.04,.04-.09,.07-.13,.11-.02,.01-.03,.03-.05,.04-.05,.04-.09,.08-.14,.12-.04,.03-.08,.07-.12,.11-.05,.04-.09,.08-.14,.12-.04,.04-.08,.08-.13,.11-.05,.04-.09,.09-.14,.13-.04,.04-.08,.08-.13,.12-.05,.05-.1,.09-.14,.14-.04,.04-.08,.08-.12,.12-.1,.1-.2,.2-.31,.3-.03,.04-.07,.07-.1,.11-.05,.06-.11,.11-.17,.17-.04,.04-.08,.08-.11,.12-.06,.06-.12,.12-.17,.18-.03,.03-.05,.05-.08,.08-.01,.02-.03,.03-.04,.05-.03,.04-.07,.08-.11,.11-.08,.08-.15,.17-.23,.25-.03,.03-.06,.07-.09,.1-.07,.08-.14,.16-.21,.24-.03,.03-.06,.07-.09,.1-.07,.09-.15,.17-.23,.26-.03,.03-.05,.06-.08,.1-.09,.1-.17,.2-.26,.31-.03,.03-.05,.06-.08,.1-.09,.11-.18,.22-.27,.33-.02,.02-.04,.05-.06,.07-.08,.1-.17,.21-.25,.32-.02,.02-.04,.05-.05,.07-.1,.12-.19,.24-.29,.36-.02,.03-.05,.06-.07,.09-.1,.12-.19,.25-.29,.38-.02,.02-.04,.05-.06,.08-.1,.14-.21,.27-.32,.41-3.37,4.47-6.42,8.88-9.37,13.14-.48,.7-.96,1.39-1.43,2.07-.02,.03-.04,.06-.06,.09-.1,.14-.2,.28-.3,.43-.03,.04-.05,.08-.08,.12-.09,.13-.19,.27-.28,.4-.03,.05-.07,.1-.1,.15-.09,.13-.18,.25-.26,.38-.04,.05-.07,.11-.11,.16-.08,.12-.17,.24-.25,.36-.04,.06-.08,.11-.12,.17-.08,.12-.17,.24-.25,.36-.04,.06-.08,.12-.12,.17-.08,.12-.16,.23-.24,.35-.04,.06-.08,.12-.13,.18-.08,.11-.16,.23-.24,.34-.04,.06-.08,.12-.13,.18-.08,.11-.16,.23-.24,.34-.04,.06-.08,.11-.12,.17-.08,.11-.16,.23-.24,.34-.04,.05-.07,.1-.11,.16-.08,.12-.17,.23-.25,.35-.02,.03-.04,.06-.06,.09-.2,.28-.4,.55-.59,.82-.02,.02-.03,.05-.05,.07-.07,.1-.14,.19-.21,.29-.05,.07-.1,.14-.15,.21-.06,.09-.13,.17-.19,.26-.06,.08-.11,.15-.17,.23-.06,.08-.12,.16-.18,.25-.06,.08-.12,.16-.18,.24-.06,.08-.12,.16-.18,.24-.06,.08-.12,.16-.18,.24-.06,.08-.12,.15-.18,.23-.06,.08-.12,.16-.18,.24-.06,.08-.12,.15-.17,.23-.06,.08-.12,.16-.18,.24-.06,.07-.11,.15-.17,.22-.06,.08-.12,.16-.19,.24-.06,.07-.11,.14-.17,.22-.06,.08-.13,.16-.19,.24-.06,.07-.11,.14-.17,.21-.06,.08-.13,.16-.19,.24-.05,.07-.11,.13-.16,.2-.07,.08-.13,.16-.2,.24-.05,.06-.1,.13-.15,.19-.07,.08-.14,.17-.2,.25-.05,.06-.1,.12-.15,.18-.07,.09-.15,.18-.22,.26-.04,.05-.09,.1-.13,.16-.09,.11-.19,.22-.28,.33-.02,.03-.04,.05-.07,.08-.12,.13-.23,.27-.34,.4-.04,.04-.08,.09-.12,.13-.08,.09-.15,.18-.23,.26-.05,.05-.09,.1-.14,.16-.07,.08-.14,.15-.2,.23-.05,.06-.1,.11-.15,.16-.06,.07-.13,.14-.19,.21-.05,.05-.09,.1-.14,.15-.08,.08-.15,.16-.23,.24-.05,.05-.1,.11-.15,.16-.07,.07-.14,.15-.21,.22-.05,.05-.1,.11-.15,.16-.08,.08-.15,.15-.23,.23-.05,.05-.09,.09-.14,.14-.12,.12-.23,.23-.35,.34-.03,.03-.06,.06-.09,.09-.09,.09-.18,.17-.27,.26-.05,.04-.09,.09-.14,.13-.07,.07-.15,.14-.22,.21-.05,.04-.1,.09-.15,.13-.07,.07-.15,.13-.22,.19-.05,.04-.1,.08-.14,.13-.08,.07-.15,.13-.23,.2-.05,.04-.09,.08-.14,.12-.02,.02-.04,.04-.06,.05-.08,.07-.16,.13-.24,.19-.02,.02-.05,.04-.07,.06-.2,.16-.39,.31-.59,.45-.02,.02-.04,.03-.06,.05-.08,.06-.16,.12-.24,.17-.02,.02-.04,.03-.07,.05-.19,.13-.38,.26-.57,.38-.09,.06-.17,.11-.26,.16-.03,.02-.06,.04-.09,.06-.12,.07-.23,.14-.35,.2-.03,.02-.07,.04-.1,.06-.08,.05-.17,.09-.25,.14-.04,.02-.09,.04-.13,.07-.08,.04-.15,.08-.23,.11-.06,.03-.12,.06-.18,.09-.02,.01-.04,.02-.07,.03-.09,.04-.18,.08-.28,.12-.02,0-.04,.01-.05,.02-.06,.03-.13,.05-.19,.08,1.68,1.46,3.31,2.37,4.92,2.74Z"/>
      <path class="cls-7" d="M139.29,45.78c.15,.06,.31,.11,.46,.14,.07,.01,.13,.03,.2,.04,0,0,0,0,0,0,0,0,.01,0,.02,0,.03,0,.06,0,.08,0,.05,0,.11,.01,.16,.01,.04,0,.08,0,.12,0,.05,0,.11,0,.16,0,0,0,.02,0,.02,0,0,0,0,0,.01,0,.07,0,.13,0,.2-.01,.08,0,.15-.02,.23-.03,.07-.01,.14-.02,.21-.04,.03,0,.06-.01,.09-.02,0,0,0,0,0,0,.07-.02,.14-.03,.21-.05,.05-.01,.1-.03,.15-.04,.04-.01,.08-.02,.12-.03,.13-.04,.26-.08,.39-.13,0,0,.01,0,.02,0,.12-.04,.24-.09,.36-.15,.04-.02,.08-.03,.12-.05,.05-.02,.09-.04,.14-.06,0,0,0,0,.01,0,.03-.01,.06-.03,.09-.04,.08-.04,.15-.08,.23-.12,.06-.03,.12-.07,.19-.1,.07-.04,.15-.09,.22-.13,.03-.02,.07-.04,.1-.06,.01,0,.02-.01,.03-.02,.01-.01,.03-.02,.04-.03,.09-.06,.18-.12,.27-.19,.05-.03,.1-.07,.14-.1,.1-.08,.21-.16,.31-.24,.02-.02,.04-.03,.07-.05,0,0,.01,0,.02-.01,0,0,0,0,0,0,.15-.12,.29-.25,.43-.39,.04-.04,.08-.07,.11-.11,.11-.1,.21-.21,.31-.32,.02-.02,.04-.04,.06-.06,0,0,.02-.02,.02-.03,.02-.02,.03-.03,.05-.05,.05-.06,.11-.12,.16-.18,.05-.06,.11-.13,.16-.19,.05-.06,.1-.12,.15-.19,.05-.07,.11-.13,.16-.2,.05-.06,.1-.13,.15-.19,.05-.07,.1-.14,.16-.22,.05-.07,.09-.13,.14-.2,.02-.04,.05-.07,.07-.11,0,0,0-.01,.01-.02,.03-.04,.05-.08,.08-.12,.04-.06,.08-.12,.11-.18,.06-.09,.11-.17,.16-.26,.04-.06,.07-.12,.11-.18,.05-.09,.11-.19,.16-.28,.03-.06,.07-.12,.1-.18,.06-.1,.11-.2,.16-.3,.03-.06,.06-.11,.09-.17,.06-.12,.12-.23,.18-.35,.02-.04,.04-.09,.07-.13,.08-.16,.16-.33,.24-.5,0-.01,0-.02,.01-.03,.07-.16,.14-.32,.21-.48,.02-.06,.05-.12,.07-.17,.04-.08,.07-.17,.11-.25,0-.02,.02-.04,.02-.06,0,0,0-.02,0-.02,.09-.22,.17-.43,.26-.65,.02-.05,.04-.1,.06-.15,.07-.17,.13-.35,.19-.53,.03-.08,.05-.15,.08-.23,.06-.17,.11-.33,.17-.5,.02-.07,.04-.13,.07-.2,.07-.23,.15-.46,.22-.7,.01-.05,.03-.1,.04-.14,.06-.19,.11-.38,.17-.58,.02-.08,.04-.16,.07-.24,.05-.17,.09-.34,.14-.52,.02-.08,.04-.15,.06-.23,.06-.24,.12-.48,.18-.73,0-.04,.02-.07,.03-.11,.05-.21,.1-.43,.15-.64,.02-.08,.04-.17,.06-.25,.04-.17,.07-.35,.11-.52,.02-.08,.03-.17,.05-.25,.05-.23,.09-.47,.14-.7,0-.03,.01-.06,.02-.09,.04-.24,.09-.48,.13-.72,.01-.08,.03-.17,.04-.25,.03-.18,.06-.35,.09-.53,.01-.09,.03-.17,.04-.26,.03-.21,.07-.42,.1-.63,0-.04,.01-.09,.02-.13,.04-.25,.07-.5,.11-.75,.01-.08,.02-.16,.03-.25,.02-.18,.05-.35,.07-.53,.01-.09,.02-.18,.03-.27,.02-.19,.05-.39,.07-.58,0-.06,.01-.11,.02-.17,0,0,0,0,0,0,.03-.24,.05-.49,.08-.73,0-.08,.02-.15,.02-.23,.02-.17,.03-.35,.05-.52,0-.09,.02-.17,.02-.26,.02-.18,.03-.37,.05-.55,0-.06,.01-.12,.02-.18,.02-.24,.04-.47,.05-.71,0-.07,0-.14,.01-.21,.01-.17,.02-.34,.04-.51,0-.08,.01-.16,.02-.24,.01-.17,.02-.34,.03-.51,0-.06,0-.13,.01-.19,.01-.23,.02-.45,.03-.67,0-.05,0-.1,0-.15,0-.17,.01-.35,.02-.52,0-.07,0-.14,0-.21,0-.16,.01-.32,.02-.47,0-.06,0-.12,0-.18,0-.21,.01-.42,.02-.62,0-.04,0-.07,0-.11,0-.17,0-.33,0-.49,0-.07,0-.13,0-.19,0-.14,0-.28,0-.42,0-.05,0-.11,0-.16,0-.19,0-.37,0-.56,0-.02,0-.04,0-.06,0-.16,0-.32,0-.48,0-.05,0-.11,0-.16,0-.12,0-.24,0-.36,0-.05,0-.1,0-.15,0-.16,0-.32-.01-.47,0,0,0,0,0,0h0s.89-.1,.89-.1l.89-.1-9.51-2.33-1.78,.19c0,.15,0,.31,.01,.47,0,.05,0,.09,0,.14,0,.13,0,.25,0,.39,0,.04,0,.09,0,.13,0,.35,0,.72,0,1.11,0,.04,0,.08,0,.12,0,.16,0,.32,0,.48,0,.05,0,.1,0,.15,0,.19,0,.39,0,.59,0,0,0,.02,0,.02,0,.22,0,.44-.02,.66,0,.03,0,.07,0,.11,0,.18-.01,.37-.02,.56,0,.05,0,.1,0,.15,0,.21-.02,.42-.03,.63,0,.02,0,.03,0,.05-.01,.24-.02,.48-.04,.72,0,.03,0,.06,0,.09-.01,.21-.02,.42-.04,.63,0,.05,0,.11-.01,.16-.01,.21-.03,.42-.04,.64,0,.03,0,.06,0,.09-.02,.25-.04,.51-.06,.76,0,.02,0,.04,0,.06-.02,.23-.04,.46-.06,.69,0,.06-.01,.11-.02,.17-.02,.21-.04,.43-.06,.65,0,.04,0,.08-.01,.12-.03,.26-.06,.53-.09,.79,0,0,0,.02,0,.03-.03,.25-.06,.49-.09,.74,0,.06-.01,.12-.02,.17-.03,.22-.05,.43-.08,.65,0,.05-.01,.1-.02,.14-.07,.52-.15,1.05-.23,1.58,0,.06-.02,.12-.03,.17-.03,.21-.07,.42-.11,.64,0,.06-.02,.11-.03,.17-.09,.52-.19,1.05-.3,1.56-.01,.06-.02,.12-.04,.17-.04,.21-.09,.41-.13,.61-.01,.06-.03,.12-.04,.18-.11,.51-.23,1.02-.36,1.52-.01,.05-.03,.11-.04,.16-.05,.2-.1,.4-.16,.59-.02,.06-.03,.12-.05,.19-.06,.23-.13,.45-.19,.67,0,.02-.01,.04-.02,.06-.07,.24-.15,.49-.23,.73-.02,.05-.03,.1-.05,.15-.06,.19-.13,.38-.19,.56-.02,.06-.04,.12-.06,.18-.07,.2-.14,.4-.22,.59-.01,.03-.02,.06-.04,.1-.09,.23-.18,.45-.27,.68-.03,.08-.07,.17-.1,.25-.04,.09-.07,.17-.11,.26-.04,.1-.08,.19-.13,.29-.05,.11-.1,.22-.15,.34-.06,.12-.11,.24-.17,.36-.03,.07-.07,.13-.1,.2-.05,.1-.1,.19-.14,.28-.04,.07-.07,.14-.11,.2-.05,.09-.09,.18-.14,.27-.04,.07-.08,.13-.11,.2-.05,.08-.1,.17-.15,.25-.04,.07-.08,.13-.12,.2-.05,.08-.1,.16-.15,.24-.04,.06-.08,.13-.12,.19-.05,.08-.1,.15-.15,.22-.05,.07-.1,.14-.14,.21-.05,.07-.1,.14-.15,.21-.05,.07-.1,.13-.15,.2-.05,.07-.1,.13-.15,.2-.05,.07-.1,.13-.16,.19-.05,.06-.1,.12-.16,.18-.05,.06-.11,.13-.17,.19-.02,.02-.04,.05-.07,.07,.81,2.32,1.87,4.14,3.41,4.75Z"/>
      <path class="cls-7" d="M84.55,66.87c-.11-.03-.22-.06-.33-.1-.01,0-.02,0-.04-.01-.11-.03-.22-.07-.33-.11-.05-.02-.09-.03-.14-.05-.07-.02-.13-.05-.2-.08-.06-.02-.11-.04-.17-.07-.06-.02-.11-.05-.17-.07-.06-.03-.12-.05-.18-.08-.04-.02-.09-.04-.13-.06-.26-.12-.52-.25-.78-.39-.01,0-.03-.02-.04-.02-.09-.05-.18-.1-.27-.16-.01,0-.03-.02-.04-.02-1.91-1.12-3.8-2.85-5.7-5.2-.02-.03-.05-.06-.07-.08l1.58-.7-9.51-2.33-1.58,.7c2.95,3.66,5.87,5.84,8.86,6.57,3.17,.78,6.34,1.55,9.51,2.33-.05-.01-.11-.03-.16-.04-.04,0-.07-.02-.11-.03Z"/>
    </g>
    <path class="cls-7" d="M153.58,13.79c.03,1.16,.13,8.14-1.05,15.22-1.76,10.63-5.46,16.65-11,17.88-.28,.06-.56,.11-.82,.13-.19,.02-.38,.03-.56,.03-.64,0-1.25-.11-1.81-.34-3.52-1.4-4.69-7.11-5.83-12.64h0c-.44-2.17-.95-4.62-1.62-6.54-.81-2.3-1.7-3.39-2.8-3.43h-.01s-.01,0-.01,0c-1.83,.16-4.38,2.43-7.79,6.95-3.38,4.47-6.41,8.86-9.34,13.1h0c-8.54,12.36-15.29,22.12-22.91,22.86-.29,.03-.59,.04-.88,.04-3.69,0-7.25-2.17-10.89-6.64l1.25-.55c3.43,4.22,6.65,6.28,9.84,6.28,.23,0,.46-.01,.68-.03,6.76-.66,13.66-10.65,21.66-22.21,2.93-4.25,5.97-8.63,9.36-13.14,1.9-2.52,3.54-4.35,4.99-5.58,1.43-1.22,2.7-1.87,3.87-1.98,.12-.01,.25-.02,.37-.02,.04,0,.09,0,.13,0,3.34,.12,4.29,4.73,5.5,10.57v.03c1.06,5.11,2.25,10.9,5.32,12.13,.38,.15,.77,.22,1.18,.22,.12,0,.24,0,.36-.02,.18-.02,.36-.05,.55-.09,2.3-.51,4.29-2.14,5.91-4.85,1.37-2.27,2.48-5.32,3.32-9.05,1.45-6.42,1.79-13.78,1.65-18.2l1.4-.15m.19-.18l-1.78,.19c.29,8.19-1.08,29.93-10.74,32.08-.18,.04-.36,.07-.53,.09-.12,.01-.23,.02-.34,.02-.39,0-.75-.07-1.1-.21-2.99-1.19-4.17-6.94-5.21-12.01-1.22-5.92-2.18-10.6-5.68-10.73-.05,0-.09,0-.14,0-.13,0-.26,0-.39,.02-2.41,.23-5.21,2.63-8.99,7.64-3.37,4.47-6.42,8.88-9.37,13.14-7.97,11.53-14.86,21.49-21.52,22.13-.22,.02-.44,.03-.66,.03-3.15,0-6.35-2.08-9.78-6.32l-1.58,.7c3.71,4.6,7.36,6.85,11.16,6.85,.3,0,.6-.01,.9-.04,7.72-.75,14.49-10.55,23.06-22.94,2.94-4.25,5.98-8.65,9.34-13.1,4.27-5.66,6.46-6.77,7.64-6.88,2.24,.08,3.35,5.49,4.24,9.83,1.15,5.57,2.33,11.33,5.94,12.77,.59,.23,1.22,.35,1.9,.35,.19,0,.39,0,.59-.03,.28-.03,.56-.07,.85-.14,5.61-1.25,9.36-7.31,11.13-18.01,1.29-7.79,1.05-15.34,1.04-15.41h0Z"/>
  </g>
</svg>