<?xml version="1.0" encoding="UTF-8"?>
<svg id="Layer_1" data-name="Layer 1" xmlns="http://www.w3.org/2000/svg" viewBox="0 0 102.5 85.9">
  <defs>
    <style>
      .cls-1 {
        fill: #0c4e6d;
      }

      .cls-2 {
        fill: #177fb2;
      }

      .cls-3 {
        fill: #fff;
      }

      .cls-4 {
        fill: #a0a0a0;
      }

      .cls-5 {
        fill: #f8fdff;
      }

      .cls-6 {
        fill: #4d4f53;
      }

      .cls-7 {
        fill: #004d71;
      }

      .cls-8 {
        fill: #0089c5;
      }
    </style>
  </defs>
  <g>
    <polygon class="cls-3" points="57.9 2.5 75.9 2.5 97.5 35.2 57.9 35.2 57.9 2.5"/>
    <path class="cls-2" d="M78.6,1.4c-.6-.9-1.6-1.4-2.7-1.4H3.3C1.5,0,.1,1.5,.1,3.2V70.8c0,1.3,.78,2.39,1.85,2.89,.01,0,.02,0,.03,0,.41,.2,.86,.3,1.32,.3H99.3c.69,0,1.32-.22,1.84-.59l.02-.02c.58-.42,1.02-1.03,1.22-1.73,0-.01,0-.02,0-.03t0-.02s0-.02,0-.03c.07-.26,.11-.51,.11-.78V37.8L78.6,1.4Zm-16.1,4.7h12.2l17.3,26.1h-29.5V6.1Z"/>
    <path class="cls-1" d="M0,71.4c0,1.4,1.5,2.5,3.2,2.5H99.2c1.8,0,3.2-1.1,3.2-2.5v-25.2H0v25.2Z"/>
    <g>
      <circle class="cls-4" cx="23.9" cy="70.7" r="12.3"/>
      <path class="cls-6" d="M23.9,55.6c-8.3,0-15.2,6.7-15.2,15.1,0,1.1,.12,2.17,.34,3.2,0,.04,.01,.07,.03,.1,1.5,6.81,7.57,11.9,14.83,11.9s13.39-5.06,14.86-11.9c.01-.03,.02-.06,.02-.1,.21-1,.32-2.04,.32-3.1,0-8.4-6.9-15.2-15.2-15.2Zm8.84,18.3s-.02,.06-.03,.1c-1.33,3.57-4.77,6.1-8.81,6.1s-7.48-2.53-8.81-6.1c-.01-.04-.02-.07-.03-.1-.36-1-.56-2.08-.56-3.2,0-5.2,4.2-9.4,9.4-9.4s9.4,4.3,9.4,9.4c0,1.12-.2,2.2-.56,3.2Z"/>
    </g>
    <g>
      <circle class="cls-4" cx="80.5" cy="70.7" r="12.3"/>
      <path class="cls-6" d="M80.5,55.6c-8.4,0-15.2,6.7-15.2,15.1,0,1.1,.12,2.17,.34,3.2,0,.04,.01,.07,.03,.1,1.5,6.81,7.57,11.9,14.83,11.9s13.22-5.15,14.73-11.9c.01-.04,.02-.07,.02-.1,.23-1.04,.35-2.11,.35-3.2,0-8.3-6.7-15.1-15.1-15.1Zm8.84,18.3s-.02,.06-.03,.1c-1.33,3.57-4.77,6.1-8.81,6.1s-7.48-2.53-8.81-6.1c-.01-.04-.02-.07-.03-.1-.36-1-.56-2.08-.56-3.2,0-5.2,4.2-9.4,9.4-9.4s9.4,4.3,9.4,9.4c0,1.12-.2,2.2-.56,3.2Z"/>
    </g>
    <path class="cls-5" d="M44.19,8.12c0,18.51-15.01,33.51-33.52,33.51-3.69,0-7.25-.6-10.57-1.7V3.2C.1,1.5,1.5,0,3.3,0H43.2c.65,2.6,.99,5.32,.99,8.12Z"/>
  </g>
  <g>
    <path class="cls-8" d="M32.17,8.9s.08,2.57-.35,5.2c-.6,3.61-1.86,5.65-3.75,6.07-.1,.02-.19,.04-.29,.05-.3,.03-.58,0-.84-.11-1.22-.48-1.62-2.43-2-4.3-.3-1.46-.68-3.29-1.43-3.31-.4,.03-1.14,.41-2.58,2.32-1.13,1.5-2.16,2.98-3.15,4.42-2.89,4.18-5.17,7.48-7.77,7.74-1.39,.13-2.72-.62-4.07-2.29l.53-.23c1.24,1.53,2.39,2.23,3.52,2.12,2.25-.22,4.57-3.58,7.25-7.46,.99-1.44,2.02-2.92,3.16-4.43,1.28-1.69,2.22-2.5,3.03-2.57,.06,0,.12,0,.18,0,1.18,.04,1.5,1.62,1.92,3.62,.35,1.71,.75,3.65,1.76,4.05,.15,.06,.31,.08,.48,.06,.06,0,.12-.02,.18-.03,3.26-.72,3.72-8.05,3.62-10.81l.6-.06Z"/>
    <g>
      <path class="cls-7" d="M27.11,20.17s-.01,0-.02,0c-.01,0-.02,0-.03,0,0,0-.01,0-.02,0-.01,0-.02,0-.04-.01,0,0-.01,0-.02,0-.02,0-.03-.01-.05-.02,0,0,0,0,0,0,0,0,0,0,0,0-.02,0-.03-.01-.05-.02,0,0-.01,0-.02,0-.01,0-.03-.01-.04-.02,0,0-.01,0-.02,0-.01,0-.02-.01-.04-.02,0,0-.01,0-.02,0-.01,0-.02-.01-.04-.02,0,0-.01,0-.02,0-.01,0-.03-.02-.04-.02,0,0,0,0-.01,0-.01,0-.03-.02-.04-.03,0,0,0,0-.01,0-.01,0-.03-.02-.04-.03,0,0,0,0,0,0-.01-.01-.03-.02-.04-.03,0,0,0,0,0,0-.01-.01-.03-.02-.04-.03,0,0,0,0,0,0-.01-.01-.03-.02-.04-.04,0,0,0,0,0,0-.01-.01-.03-.03-.04-.04,0,0,0,0,0,0-.01-.01-.03-.03-.04-.04,0,0,0,0,0,0-.01-.02-.03-.03-.04-.05,0,0,0,0,0,0-.48-.55-.79-1.41-1.02-2.38,0,0,0,0,0,0-.01-.06-.03-.12-.04-.17,0,0,0,0,0,0-.01-.06-.03-.12-.04-.17,0,0,0,0,0,0-.01-.06-.03-.11-.04-.17,0,0,0,0,0,0-.01-.06-.03-.11-.04-.17,0,0,0,0,0,0-.01-.06-.02-.11-.04-.17,0,0,0,0,0-.01-.01-.06-.02-.11-.04-.17,0,0,0,0,0-.01-.01-.05-.02-.11-.03-.16,0-.02,0-.03,0-.05,0-.04-.01-.07-.02-.11,0-.01,0-.03,0-.04-.14-.66-.29-1.39-.48-1.99,0,0,0,0,0,0,0-.02-.01-.04-.02-.06,0,0,0,0,0,0,0-.02-.01-.04-.02-.05,0,0,0,0,0,0,0-.02-.01-.03-.02-.05,0,0,0,0,0,0,0-.02-.01-.03-.02-.05,0,0,0,0,0-.01,0-.02-.01-.03-.02-.05,0,0,0,0,0-.01,0-.01-.01-.03-.02-.04,0,0,0,0,0-.01,0-.01-.01-.03-.02-.04,0,0,0,0,0-.01,0-.01-.01-.03-.02-.04,0,0,0,0,0-.01,0-.01-.01-.03-.02-.04,0,0,0,0,0-.01,0-.01-.01-.03-.02-.04,0,0,0,0,0-.01,0-.01-.01-.03-.02-.04,0,0,0,0,0-.01,0-.01-.01-.03-.02-.04,0,0,0,0,0-.01,0-.01-.01-.03-.02-.04,0,0,0,0,0,0,0-.01-.01-.03-.02-.04,0,0,0,0,0,0-.04-.07-.08-.14-.12-.2,0,0,0,0,0,0,0,0-.01-.02-.02-.03,0,0,0,0,0,0,0,0-.01-.02-.02-.03,0,0,0,0,0-.01,0,0-.01-.01-.02-.02,0,0,0,0,0-.01,0,0-.01-.01-.02-.02,0,0,0,0-.01-.01,0,0-.01-.01-.02-.02,0,0,0,0-.01-.01,0,0-.01-.01-.02-.02,0,0,0,0-.01-.01,0,0-.01-.01-.02-.02,0,0,0,0-.01-.01,0,0-.01,0-.02-.01,0,0,0,0-.01,0,0,0-.01,0-.02-.01,0,0,0,0-.01,0,0,0-.01,0-.02-.01,0,0,0,0-.01,0,0,0-.01,0-.02-.01,0,0,0,0-.01,0,0,0-.01,0-.02,0,0,0,0,0-.01,0,0,0-.01,0-.02,0,0,0,0,0-.01,0,0,0-.01,0-.02,0,0,0-.01,0-.02,0,0,0-.01,0-.02,0-.03,0-.06-.01-.1-.01-.34,.03-.93,.31-1.98,1.57,.07,.32,.14,.65,.21,.96,.39,1.88,.79,3.82,2,4.3,.07,.03,.14,.05,.22,.07,1.07,.26,2.14,.52,3.21,.78,0,0,0,0,0,0-.01,0-.02,0-.03,0Z"/>
      <path class="cls-7" d="M9.2,26.5s.03,0,.05,.01c.02,0,.04,0,.06,.01,.02,0,.03,0,.05,0,.03,0,.05,0,.08,.01,0,0,0,0,0,0,.02,0,.03,0,.05,0,0,0,.02,0,.03,0,.01,0,.02,0,.03,0,.02,0,.03,0,.05,0,0,0,.01,0,.02,0,.01,0,.02,0,.03,0,.02,0,.04,0,.06,0,0,0,.01,0,.02,0,.01,0,.02,0,.03,0,.02,0,.04,0,.06,0,.02,0,.03,0,.05,0,0,0,0,0,0,0,0,0,0,0,0,0,.03,0,.07,0,.1,0,0,0,0,0,0,0,.03,0,.07,0,.1-.01,.01,0,.02,0,.03,0,.02,0,.05,0,.07-.01,.02,0,.03,0,.05,0,.02,0,.04,0,.06-.01,0,0,.01,0,.02,0,.01,0,.02,0,.04,0,.02,0,.03,0,.05-.01,.03,0,.06-.02,.09-.03,0,0,.02,0,.02,0,.01,0,.03,0,.04-.01,.01,0,.03,0,.04-.01,0,0,0,0,.01,0,.03-.01,.06-.02,.09-.03,0,0,.01,0,.02,0,.03-.01,.05-.02,.08-.03,0,0,.01,0,.02,0,.03-.01,.06-.03,.09-.04,0,0,.02,0,.02-.01,0,0,0,0,0,0,.02,0,.04-.02,.06-.03,.03-.01,.05-.03,.08-.04,.01,0,.03-.01,.04-.02,0,0,0,0,0,0,.03-.02,.06-.03,.09-.05,0,0,.01,0,.02,0,0,0,.01,0,.02,0,.04-.02,.08-.05,.12-.07,0,0,.02-.01,.03-.02,.03-.02,.06-.04,.09-.06,.03-.02,.06-.04,.09-.06,0,0,0,0,0,0,0,0,0,0,0,0,.03-.02,.06-.04,.09-.06,.01,0,.02-.01,.03-.02,.01,0,.03-.02,.04-.03,0,0,.02-.01,.03-.02,.01,0,.02-.02,.03-.02,.03-.02,.06-.05,.09-.07,0,0,.01,0,.02-.01,.02-.02,.05-.04,.07-.06,0,0,0,0,0,0,.01,0,.02-.02,.03-.03,.02-.02,.04-.04,.07-.05,.01,0,.02-.02,.03-.03,.01-.01,.02-.02,.04-.03,0,0,0,0,0,0,.03-.02,.06-.05,.09-.07,0,0,.02-.01,.02-.02,0,0,.02-.01,.02-.02,.02-.02,.05-.04,.07-.07,.02-.01,.03-.03,.05-.05,.02-.02,.05-.05,.07-.07,.02-.01,.03-.03,.05-.04,.03-.03,.06-.06,.09-.08,0,0,0,0,.01-.01,0,0,.01-.01,.02-.02,.04-.04,.08-.08,.12-.12,0,0,0,0,.01-.01,.01-.01,.02-.02,.03-.03,.03-.03,.05-.05,.08-.08,.01-.01,.03-.03,.04-.04,0,0,0,0,.01-.01,.02-.03,.05-.05,.07-.08,.02-.02,.03-.04,.05-.05,.03-.03,.05-.05,.08-.08,0,0,0,0,0,0,.02-.02,.03-.03,.05-.05,0,0,0,0,0,0,.02-.02,.04-.05,.06-.07,.02-.02,.04-.04,.05-.06,.02-.02,.04-.05,.07-.07,.02-.02,.03-.04,.05-.06,.02-.03,.05-.05,.07-.08,.02-.02,.03-.04,.05-.05,.04-.04,.08-.09,.11-.13,.01-.01,.02-.03,.03-.04,.03-.03,.05-.06,.08-.1,.02-.02,.03-.04,.05-.06,.02-.03,.04-.05,.07-.08,.02-.02,.03-.04,.05-.06,0,0,0,0,0,0,.02-.03,.04-.05,.07-.08,.01-.02,.03-.03,.04-.05,0,0,.01-.01,.02-.02,.02-.03,.04-.05,.06-.08,.02-.02,.04-.05,.05-.07,.02-.03,.04-.05,.06-.08,.02-.02,.03-.04,.05-.06,0,0,0,0,0,0,.02-.03,.04-.06,.07-.08,.02-.02,.04-.05,.05-.07,.02-.03,.04-.06,.07-.08,.01-.01,.02-.03,.03-.04,0,0,.01-.02,.02-.03,.02-.03,.04-.06,.07-.09,.02-.02,.04-.05,.05-.07,.02-.03,.05-.06,.07-.09,0-.01,.02-.02,.03-.03,0-.01,.02-.02,.03-.04,.02-.03,.04-.06,.07-.09,.01-.02,.03-.04,.04-.06,0,0,0,0,.01-.01,.02-.03,.05-.07,.07-.1,.01-.02,.03-.04,.04-.06,0,0,0,0,0,0,.03-.04,.05-.07,.08-.11,.01-.02,.03-.04,.04-.06,.03-.04,.06-.09,.1-.13,0,0,0,0,0-.01,0,0,.01-.02,.02-.02,.08-.11,.17-.23,.25-.34,0,0,0,0,0,0,0-.01,.02-.02,.02-.03,.03-.04,.06-.09,.09-.13,0,0,0-.01,.01-.02,0-.01,.02-.02,.03-.04,.03-.04,.06-.08,.09-.12,.01-.02,.03-.04,.04-.06,.03-.04,.06-.08,.09-.12,0-.01,.02-.03,.03-.04,0,0,0-.01,.01-.02,.03-.04,.06-.08,.08-.12,0,0,0,0,0,0,.01-.02,.03-.04,.04-.06,.03-.04,.06-.08,.08-.12,0,0,0,0,0-.01,.01-.02,.02-.03,.04-.05,.03-.04,.06-.08,.09-.12,0,0,0,0,0-.01,.01-.02,.02-.03,.03-.05,.03-.04,.06-.08,.09-.12,0,0,.01-.02,.02-.03,0,0,.01-.02,.02-.03,.03-.05,.06-.09,.1-.14,0,0,0-.01,.01-.02,0-.01,.02-.02,.02-.03,.03-.04,.06-.08,.08-.12,.01-.02,.03-.04,.04-.06,.03-.05,.07-.1,.1-.15,0-.01,.02-.02,.02-.04,.04-.06,.08-.12,.12-.18h0s0-.01,.01-.02c.08-.12,.16-.23,.24-.35,0,0,.01-.02,.02-.02,.47-.69,.96-1.38,1.45-2.09,.55-.77,1.11-1.55,1.7-2.34,.02-.02,.03-.04,.05-.06,.03-.03,.05-.07,.08-.1,0,0,0,0,0,0,.02-.02,.03-.04,.05-.07,.02-.03,.05-.06,.07-.09,0,0,0,0,0,0,.01-.02,.03-.03,.04-.05,.03-.04,.06-.07,.08-.11,0,0,0,0,0,0,.02-.02,.03-.04,.05-.06,0,0,0,0,0,0,.03-.04,.06-.07,.09-.11,0,0,0,0,0,0,0,0,0,0,0,0,.77-.94,1.42-1.52,1.99-1.77,0,0,0,0,0,0,0,0,.01,0,.02,0,.03-.01,.06-.02,.08-.03,0,0,.01,0,.02,0h0s.04-.01,.05-.02c0,0,.02,0,.03,0,0,0,0,0,0,0,.04-.01,.07-.02,.11-.03h0s.03,0,.05-.01h0s.02,0,.03,0h0s.03,0,.05,0h0s.02,0,.02,0h0s.03,0,.04,0c.01,0,.02,0,.03,0,.03,0,.05,0,.08,0,0,0,0,0,0,0h0s.03,0,.04,0c0,0,0,0,0,0h0s.03,0,.05,0h0s.04,0,.06,0c0,0,0,0,0,0,0,0,0,0,.01,0,.01,0,.03,0,.04,0,0,0,0,0,0,0,0,0,0,0,.01,0,.01,0,.03,0,.04,0,0,0,0,0,0,0,0,0,0,0,0,0,0,0,0,0,.01,0,.01,0,.02,0,.04,0,0,0,0,0,.01,0l-3.21-.78s-.04,0-.06-.01c0,0-.02,0-.03,0-.01,0-.02,0-.04,0,0,0,0,0,0,0-.01,0-.03,0-.04,0,0,0,0,0-.01,0-.02,0-.04,0-.06,0-.02,0-.03,0-.05,0,0,0-.01,0-.02,0-.01,0-.02,0-.03,0,0,0,0,0,0,0,0,0,0,0,0,0-.02,0-.05,0-.07,0-.02,0-.05,0-.07,0,0,0-.01,0-.02,0-.02,0-.03,0-.05,0,0,0-.02,0-.03,0-.02,0-.03,0-.05,.01,0,0-.02,0-.03,0,0,0-.01,0-.02,0,0,0-.02,0-.03,0-.01,0-.03,0-.04,.01-.01,0-.03,0-.04,.01-.01,0-.03,0-.04,.01-.01,0-.03,.01-.04,.02-.01,0-.03,.01-.04,.02-.01,0-.03,.01-.04,.02-.01,0-.03,.01-.04,.02,0,0-.01,0-.02,0,0,0-.02,0-.03,.01-.01,0-.02,.01-.03,.02-.02,0-.03,.02-.05,.03-.01,0-.02,.01-.03,.02-.02,0-.03,.02-.05,.03,0,0-.02,.01-.03,.02-.02,.01-.04,.02-.06,.04,0,0-.02,.01-.03,.02,0,0,0,0,0,0-.02,.02-.05,.03-.07,.05,0,0-.01,0-.02,.01-.02,.02-.05,.03-.07,.05,0,0-.01,0-.02,.01-.02,.02-.05,.04-.07,.05,0,0-.01,0-.02,.01-.02,.02-.04,.03-.07,.05,0,0-.01,.01-.02,.02-.01,.01-.03,.02-.04,.04,0,0-.01,0-.02,.01-.02,.01-.03,.03-.05,.04-.01,.01-.03,.02-.04,.04-.02,.01-.03,.03-.05,.04-.01,.01-.03,.03-.04,.04-.02,.01-.03,.03-.05,.04-.01,.01-.03,.03-.04,.04-.02,.02-.03,.03-.05,.05-.01,.01-.03,.03-.04,.04-.03,.03-.07,.07-.1,.1-.01,.01-.02,.02-.04,.04-.02,.02-.04,.04-.06,.06-.01,.01-.03,.03-.04,.04-.02,.02-.04,.04-.06,.06,0,0-.02,.02-.03,.03,0,0,0,.01-.01,.02-.01,.01-.02,.03-.04,.04-.03,.03-.05,.06-.08,.08-.01,.01-.02,.02-.03,.04-.02,.03-.05,.05-.07,.08,0,.01-.02,.02-.03,.03-.03,.03-.05,.06-.08,.09,0,.01-.02,.02-.03,.03-.03,.03-.06,.07-.09,.1,0,.01-.02,.02-.03,.03-.03,.04-.06,.07-.09,.11,0,0-.01,.02-.02,.02-.03,.04-.06,.07-.09,.11,0,0-.01,.02-.02,.02-.03,.04-.06,.08-.1,.12,0,0-.02,.02-.02,.03-.03,.04-.07,.08-.1,.13,0,0-.01,.02-.02,.03-.04,.05-.07,.09-.11,.14-1.14,1.51-2.16,2.99-3.16,4.43-.16,.24-.32,.47-.48,.7,0,0-.01,.02-.02,.03-.03,.05-.07,.1-.1,.14,0,.01-.02,.03-.03,.04-.03,.04-.06,.09-.09,.13-.01,.02-.02,.03-.03,.05-.03,.04-.06,.09-.09,.13-.01,.02-.03,.04-.04,.05-.03,.04-.06,.08-.09,.12-.01,.02-.03,.04-.04,.06-.03,.04-.06,.08-.08,.12-.01,.02-.03,.04-.04,.06-.03,.04-.06,.08-.08,.12-.01,.02-.03,.04-.04,.06-.03,.04-.05,.08-.08,.12-.01,.02-.03,.04-.04,.06-.03,.04-.05,.08-.08,.11-.01,.02-.03,.04-.04,.06-.03,.04-.05,.08-.08,.12-.01,.02-.03,.04-.04,.05-.03,.04-.06,.08-.08,.12,0,.01-.01,.02-.02,.03-.07,.09-.13,.18-.2,.28,0,0-.01,.02-.02,.02-.02,.03-.05,.06-.07,.1-.02,.02-.03,.05-.05,.07-.02,.03-.04,.06-.07,.09-.02,.03-.04,.05-.06,.08-.02,.03-.04,.06-.06,.08-.02,.03-.04,.05-.06,.08-.02,.03-.04,.05-.06,.08-.02,.03-.04,.05-.06,.08-.02,.03-.04,.05-.06,.08-.02,.03-.04,.05-.06,.08-.02,.03-.04,.05-.06,.08-.02,.03-.04,.05-.06,.08-.02,.02-.04,.05-.06,.07-.02,.03-.04,.05-.06,.08-.02,.02-.04,.05-.06,.07-.02,.03-.04,.05-.06,.08-.02,.02-.04,.05-.06,.07-.02,.03-.04,.05-.06,.08-.02,.02-.04,.05-.05,.07-.02,.03-.04,.05-.07,.08-.02,.02-.03,.04-.05,.06-.02,.03-.05,.06-.07,.08-.02,.02-.03,.04-.05,.06-.02,.03-.05,.06-.07,.09-.01,.02-.03,.04-.04,.05-.03,.04-.06,.08-.1,.11,0,0-.01,.02-.02,.03-.04,.05-.08,.09-.12,.13-.01,.01-.03,.03-.04,.04-.03,.03-.05,.06-.08,.09-.02,.02-.03,.04-.05,.05-.02,.03-.05,.05-.07,.08-.02,.02-.03,.04-.05,.06-.02,.02-.04,.05-.07,.07-.02,.02-.03,.03-.05,.05-.03,.03-.05,.06-.08,.08-.02,.02-.03,.04-.05,.05-.02,.03-.05,.05-.07,.08-.02,.02-.03,.04-.05,.05-.03,.03-.05,.05-.08,.08-.02,.02-.03,.03-.05,.05-.04,.04-.08,.08-.12,.12-.01,0-.02,.02-.03,.03-.03,.03-.06,.06-.09,.09-.02,.01-.03,.03-.05,.04-.03,.02-.05,.05-.08,.07-.02,.01-.03,.03-.05,.04-.02,.02-.05,.04-.07,.07-.02,.01-.03,.03-.05,.04-.03,.02-.05,.04-.08,.07-.02,.01-.03,.03-.05,.04,0,0-.01,.01-.02,.02-.03,.02-.05,.04-.08,.07,0,0-.02,.01-.02,.02-.07,.05-.13,.1-.2,.15,0,0-.01,.01-.02,.02-.03,.02-.05,.04-.08,.06,0,0-.01,.01-.02,.02-.06,.05-.13,.09-.19,.13-.03,.02-.06,.04-.09,.05-.01,0-.02,.01-.03,.02-.04,.02-.08,.05-.12,.07-.01,0-.02,.01-.03,.02-.03,.02-.06,.03-.08,.05-.01,0-.03,.01-.04,.02-.03,.01-.05,.03-.08,.04-.02,0-.04,.02-.06,.03,0,0-.01,0-.02,.01-.03,.01-.06,.03-.09,.04,0,0-.01,0-.02,0-.02,0-.04,.02-.06,.03,.57,.49,1.12,.8,1.66,.92Z"/>
      <path class="cls-7" d="M27.28,19.74c.05,.02,.1,.04,.16,.05,.02,0,.04,0,.07,.01,0,0,0,0,0,0,0,0,0,0,0,0,0,0,.02,0,.03,0,.02,0,.04,0,.05,0,.01,0,.03,0,.04,0,.02,0,.04,0,.05,0,0,0,0,0,0,0,0,0,0,0,0,0,.02,0,.04,0,.07,0,.03,0,.05,0,.08,0,.02,0,.05,0,.07-.01,0,0,.02,0,.03,0,0,0,0,0,0,0,.02,0,.05-.01,.07-.02,.02,0,.03,0,.05-.01,.01,0,.03,0,.04-.01,.04-.01,.09-.03,.13-.04,0,0,0,0,0,0,.04-.02,.08-.03,.12-.05,.01,0,.03-.01,.04-.02,.02,0,.03-.01,.05-.02,0,0,0,0,0,0,0,0,.02-.01,.03-.02,.03-.01,.05-.03,.08-.04,.02-.01,.04-.02,.06-.03,.03-.01,.05-.03,.08-.05,.01,0,.02-.01,.03-.02,0,0,0,0,.01,0,0,0,.01,0,.02-.01,.03-.02,.06-.04,.09-.06,.02-.01,.03-.02,.05-.03,.04-.03,.07-.05,.1-.08,0,0,.01-.01,.02-.02,0,0,0,0,0,0,0,0,0,0,0,0,.05-.04,.1-.09,.14-.13,.01-.01,.03-.03,.04-.04,.04-.04,.07-.07,.11-.11,0,0,.01-.01,.02-.02,0,0,0,0,0,0,0,0,.01-.01,.02-.02,.02-.02,.04-.04,.05-.06,.02-.02,.04-.04,.05-.06,.02-.02,.03-.04,.05-.06,.02-.02,.04-.05,.05-.07,.02-.02,.03-.04,.05-.07,.02-.02,.04-.05,.05-.07,.02-.02,.03-.04,.05-.07,0-.01,.02-.02,.02-.04,0,0,0,0,0,0,0-.01,.02-.03,.03-.04,.01-.02,.03-.04,.04-.06,.02-.03,.04-.06,.06-.09,.01-.02,.02-.04,.04-.06,.02-.03,.04-.06,.05-.09,.01-.02,.02-.04,.03-.06,.02-.03,.04-.07,.06-.1,0-.02,.02-.04,.03-.06,.02-.04,.04-.08,.06-.12,0-.01,.01-.03,.02-.04,.03-.06,.05-.11,.08-.17,0,0,0,0,0-.01,.02-.05,.05-.11,.07-.16,0-.02,.02-.04,.02-.06,.01-.03,.02-.06,.04-.08,0,0,0-.01,0-.02,0,0,0,0,0,0,.03-.07,.06-.15,.09-.22,0-.02,.01-.03,.02-.05,.02-.06,.04-.12,.06-.18,0-.03,.02-.05,.03-.08,.02-.06,.04-.11,.06-.17,0-.02,.01-.04,.02-.07,.02-.08,.05-.16,.07-.23,0-.02,0-.03,.01-.05,.02-.06,.04-.13,.06-.2,0-.03,.02-.05,.02-.08,.02-.06,.03-.12,.05-.17,0-.03,.01-.05,.02-.08,.02-.08,.04-.16,.06-.25,0-.01,0-.02,0-.04,.02-.07,.03-.14,.05-.22,0-.03,.01-.06,.02-.09,.01-.06,.03-.12,.04-.18,0-.03,.01-.06,.02-.08,.02-.08,.03-.16,.05-.24,0,0,0-.02,0-.03,.02-.08,.03-.16,.04-.24,0-.03,0-.06,.01-.09,.01-.06,.02-.12,.03-.18,0-.03,0-.06,.01-.09,.01-.07,.02-.14,.03-.21,0-.01,0-.03,0-.04,.01-.08,.02-.17,.04-.25,0-.03,0-.06,.01-.08,0-.06,.02-.12,.02-.18,0-.03,0-.06,.01-.09,0-.07,.02-.13,.02-.2,0-.02,0-.04,0-.06,0,0,0,0,0,0,0-.08,.02-.16,.03-.25,0-.03,0-.05,0-.08,0-.06,.01-.12,.02-.18,0-.03,0-.06,0-.09,0-.06,.01-.12,.02-.18,0-.02,0-.04,0-.06,0-.08,.01-.16,.02-.24,0-.02,0-.05,0-.07,0-.06,0-.12,.01-.17,0-.03,0-.06,0-.08,0-.06,0-.11,.01-.17,0-.02,0-.04,0-.06,0-.08,0-.15,.01-.23,0-.02,0-.03,0-.05,0-.06,0-.12,0-.18,0-.02,0-.05,0-.07,0-.05,0-.11,0-.16,0-.02,0-.04,0-.06,0-.07,0-.14,0-.21,0-.01,0-.02,0-.04,0-.06,0-.11,0-.17,0-.02,0-.04,0-.07,0-.05,0-.1,0-.14,0-.02,0-.04,0-.05,0-.06,0-.13,0-.19,0,0,0-.01,0-.02,0-.05,0-.11,0-.16,0-.02,0-.04,0-.05,0-.04,0-.08,0-.12,0-.02,0-.03,0-.05,0-.05,0-.11,0-.16,0,0,0,0,0,0h0s.3-.03,.3-.03l.3-.03-3.21-.78-.6,.06c0,.05,0,.1,0,.16,0,.02,0,.03,0,.05,0,.04,0,.09,0,.13,0,.02,0,.03,0,.05,0,.12,0,.24,0,.37,0,.01,0,.03,0,.04,0,.05,0,.11,0,.16,0,.02,0,.03,0,.05,0,.06,0,.13,0,.2,0,0,0,0,0,0,0,.07,0,.15,0,.22,0,.01,0,.02,0,.04,0,.06,0,.13,0,.19,0,.02,0,.03,0,.05,0,.07,0,.14,0,.21,0,0,0,.01,0,.02,0,.08,0,.16-.01,.24,0,0,0,.02,0,.03,0,.07,0,.14-.01,.21,0,.02,0,.04,0,.05,0,.07,0,.14-.01,.22,0,.01,0,.02,0,.03,0,.09-.01,.17-.02,.26,0,0,0,.01,0,.02,0,.08-.01,.15-.02,.23,0,.02,0,.04,0,.06,0,.07-.01,.15-.02,.22,0,.01,0,.03,0,.04,0,.09-.02,.18-.03,.27,0,0,0,0,0,0,0,.08-.02,.17-.03,.25,0,.02,0,.04,0,.06,0,.07-.02,.15-.03,.22,0,.02,0,.03,0,.05-.02,.18-.05,.35-.08,.53,0,.02,0,.04,0,.06-.01,.07-.02,.14-.04,.21,0,.02,0,.04,0,.06-.03,.18-.06,.35-.1,.53,0,.02,0,.04-.01,.06-.01,.07-.03,.14-.04,.21,0,.02,0,.04-.01,.06-.04,.17-.08,.34-.12,.51,0,.02,0,.04-.01,.05-.02,.07-.04,.13-.05,.2,0,.02-.01,.04-.02,.06-.02,.08-.04,.15-.07,.23,0,0,0,.01,0,.02-.02,.08-.05,.16-.08,.25,0,.02-.01,.03-.02,.05-.02,.06-.04,.13-.06,.19,0,.02-.01,.04-.02,.06-.02,.07-.05,.13-.07,.2,0,.01,0,.02-.01,.03-.03,.08-.06,.15-.09,.23-.01,.03-.02,.06-.04,.08-.01,.03-.02,.06-.04,.09-.01,.03-.03,.06-.04,.1-.02,.04-.03,.08-.05,.11-.02,.04-.04,.08-.06,.12-.01,.02-.02,.04-.03,.07-.02,.03-.03,.06-.05,.1-.01,.02-.02,.05-.04,.07-.02,.03-.03,.06-.05,.09-.01,.02-.03,.05-.04,.07-.02,.03-.03,.06-.05,.09-.01,.02-.03,.04-.04,.07-.02,.03-.03,.05-.05,.08-.01,.02-.03,.04-.04,.07-.02,.03-.03,.05-.05,.08-.02,.02-.03,.05-.05,.07-.02,.02-.03,.05-.05,.07-.02,.02-.03,.05-.05,.07-.02,.02-.03,.04-.05,.07-.02,.02-.04,.04-.05,.07-.02,.02-.03,.04-.05,.06-.02,.02-.04,.04-.06,.06,0,0-.01,.02-.02,.02,.27,.78,.63,1.4,1.15,1.6Z"/>
      <path class="cls-7" d="M8.83,26.85s-.07-.02-.11-.03c0,0,0,0-.01,0-.04-.01-.07-.02-.11-.04-.02,0-.03-.01-.05-.02-.02,0-.05-.02-.07-.03-.02,0-.04-.01-.06-.02-.02,0-.04-.02-.06-.02-.02,0-.04-.02-.06-.03-.01,0-.03-.01-.04-.02-.09-.04-.18-.08-.26-.13,0,0,0,0-.01,0-.03-.02-.06-.03-.09-.05,0,0,0,0-.01,0-.64-.38-1.28-.96-1.92-1.75,0,0-.02-.02-.02-.03l.53-.23-3.21-.78-.53,.23c1,1.24,1.98,1.97,2.99,2.21,1.07,.26,2.14,.52,3.21,.78-.02,0-.04,0-.05-.01-.01,0-.02,0-.04,0Z"/>
    </g>
    <path class="cls-7" d="M32.1,8.96c0,.39,.04,2.74-.35,5.13-.59,3.59-1.84,5.61-3.71,6.03-.09,.02-.19,.04-.28,.04-.06,0-.13,0-.19,0-.22,0-.42-.04-.61-.11-1.19-.47-1.58-2.4-1.97-4.26h0c-.15-.73-.32-1.56-.55-2.21-.27-.78-.57-1.14-.94-1.16h0s0,0,0,0c-.62,.05-1.48,.82-2.63,2.34-1.14,1.51-2.16,2.99-3.15,4.42h0c-2.88,4.17-5.16,7.46-7.72,7.71-.1,0-.2,.01-.3,.01-1.24,0-2.45-.73-3.67-2.24l.42-.18c1.16,1.42,2.24,2.12,3.32,2.12,.08,0,.15,0,.23-.01,2.28-.22,4.61-3.59,7.3-7.49,.99-1.43,2.01-2.91,3.16-4.43,.64-.85,1.19-1.47,1.68-1.88,.48-.41,.91-.63,1.3-.67,.04,0,.08,0,.12,0,.01,0,.03,0,.05,0,1.13,.04,1.45,1.6,1.85,3.56h0c.35,1.73,.76,3.68,1.79,4.1,.13,.05,.26,.08,.4,.08,.04,0,.08,0,.12,0,.06,0,.12-.02,.19-.03,.78-.17,1.45-.72,1.99-1.63,.46-.77,.84-1.79,1.12-3.05,.49-2.17,.6-4.65,.56-6.13l.47-.05m.06-.06l-.6,.06c.1,2.76-.36,10.09-3.62,10.81-.06,.01-.12,.02-.18,.03-.04,0-.08,0-.11,0-.13,0-.25-.02-.37-.07-1.01-.4-1.41-2.34-1.76-4.05-.41-2-.73-3.57-1.92-3.62-.02,0-.03,0-.05,0-.04,0-.09,0-.13,0-.81,.08-1.76,.89-3.03,2.57-1.14,1.51-2.16,2.99-3.16,4.43-2.69,3.89-5.01,7.24-7.25,7.46-.07,0-.15,.01-.22,.01-1.06,0-2.14-.7-3.3-2.13l-.53,.23c1.25,1.55,2.48,2.31,3.76,2.31,.1,0,.2,0,.3-.01,2.6-.25,4.88-3.56,7.77-7.74,.99-1.43,2.02-2.92,3.15-4.42,1.44-1.91,2.18-2.28,2.58-2.32,.75,.03,1.13,1.85,1.43,3.31,.39,1.88,.79,3.82,2,4.3,.2,.08,.41,.12,.64,.12,.06,0,.13,0,.2,0,.09,0,.19-.02,.29-.05,1.89-.42,3.16-2.46,3.75-6.07,.44-2.63,.35-5.17,.35-5.2h0Z"/>
  </g>
</svg>