<?xml version="1.0" encoding="UTF-8"?>
<svg id="svg2" xmlns="http://www.w3.org/2000/svg" viewBox="0 0 242.13 141.4">
  <defs>
    <style>
      .cls-1 {
        fill: #0c4e6d;
      }

      .cls-2 {
        fill: #f0f5f7;
      }

      .cls-3 {
        fill: #004d71;
      }

      .cls-4 {
        fill: #0089c5;
      }
    </style>
  </defs>
  <g>
    <path class="cls-2" d="M140.69,140.9c-.8,.3-1.6,.5-2.4,.5-1.2,0-2.3-.4-3.3-1-.6-.4-1.2-1-1.6-1.6l-29.03-41.5-15.67-20.3L13.49,25.7c-1.2-.8-2.3-1.5-3.4-2.2-2.6-1.7-5-3.2-6.8-5-1.37-1.37-2.27-2.8-2.7-4.32,.44,1.49,1.34,2.89,2.7,4.22,1.8,1.8,4.2,3.3,6.8,5,1.1,.7,2.2,1.4,3.4,2.2l75.2,51.3,2.1,2.5,46.85,29.71-.85-.41,7.1,25.3c.8,2.8-.6,5.7-3.2,6.9Z"/>
    <path class="cls-2" d="M239.69,93.6l-31.92,41.29-2.48,3.21c-1.2,1.7-2.5,2.7-4.1,3-2.6,.5-4.9-1.1-7.3-2.8l-8.7-6-47.55-23.19-46.85-29.71-2.1-2.5L13.49,25.6c-1.2-.8-2.3-1.5-3.4-2.2-2.6-1.7-5-3.2-6.8-5-1.36-1.33-2.26-2.73-2.7-4.22,.01-.01,0-.02,0-.02-.04-.14-.07-.28-.1-.42-.24-1.04-.26-2.13-.04-3.27,.07-.41,.18-.82,.32-1.24,.41-1.26,1.08-2.57,2.02-3.93l.26-.26,.24-.24C7.79,1.7,14.19,0,21.79,0c12.1,0,24.6,4.1,30.2,7.9l44.5,30.4,86.7,18.5c.8,.2,1.5,.5,2.1,.9,1.7,1.2,2.7,3.2,2.5,5.2-.2,2.9-2.4,5.3-5.3,5.5l-36.7,3.7,35.7,24.4c10.6-4.9,20.7-9.6,30-14.1,14.4-6.9,23.8-8.1,28.2-3.7s1.6,12.5,0,14.9Z"/>
  </g>
  <g>
    <path class="cls-1" d="M207.49,134.9l-2.5,3.3c-1.2,1.7-2.5,2.7-4.1,3-2.6,.5-4.9-1.1-7.3-2.8l-8.7-6-47.1-23-.45-.29-46.85-29.71-2.1-2.5L13.19,25.6c-1.2-.8-2.3-1.5-3.4-2.2-2.6-1.7-5-3.2-6.8-5-1.36-1.33-2.26-2.73-2.7-4.22,.01-.01,0-.02,0-.02-.04-.14-.07-.28-.1-.42-.24-1.04-.26-2.13-.04-3.27,.07-.41,.18-.82,.32-1.24,.39-1.28,1.07-2.62,2.02-4.03l.2-.2,.06,.04L207.47,134.89h.02Z"/>
    <path class="cls-1" d="M182.19,68.4c2.9-.2,5.1-2.6,5.3-5.5,.2-2-.8-4-2.5-5.2-.6-.4-1.3-.7-2.1-.9l-86.3-18.4,49.6,33.6,36-3.6Z"/>
  </g>
  <g>
    <path class="cls-4" d="M231.06,99.61s-1.77,2.75-4.13,5.19c-3.23,3.35-6.04,4.58-8.32,3.65-.12-.05-.23-.1-.33-.16-.34-.19-.6-.43-.8-.72-.93-1.39,.06-3.71,1.01-5.96,.74-1.75,1.67-3.93,.9-4.51-.44-.25-1.49-.39-4.38,.57-2.27,.75-4.42,1.57-6.49,2.35-6.05,2.29-10.83,4.1-13.74,2.49-1.55-.87-2.4-2.62-2.61-5.35l.73,.14c.19,2.5,.89,4.06,2.16,4.77,2.51,1.39,7.37-.45,13-2.58,2.08-.79,4.23-1.6,6.51-2.36,2.56-.85,4.13-1.01,5.04-.51,.07,.04,.13,.08,.19,.12,1.21,.9,.41,2.79-.61,5.18-.87,2.05-1.85,4.37-1.09,5.52,.12,.17,.27,.31,.46,.42,.06,.04,.13,.07,.21,.1,3.94,1.59,9.72-5.75,11.61-8.72l.67,.37Z"/>
    <g>
      <path class="cls-3" d="M217.61,107.76s-.01-.01-.02-.02c0-.01-.02-.02-.03-.03,0,0-.01-.01-.02-.02,0-.01-.02-.03-.03-.04,0,0,0-.01-.01-.02-.01-.02-.03-.04-.04-.05,0,0,0,0,0,0,0,0,0,0,0-.01-.01-.02-.02-.04-.04-.06,0,0,0-.02-.01-.02,0-.02-.02-.03-.03-.05,0,0,0-.02-.01-.02,0-.02-.02-.03-.02-.05,0,0,0-.01-.01-.02,0-.02-.02-.03-.02-.05,0,0,0-.01,0-.02,0-.02-.02-.03-.02-.05,0,0,0-.01,0-.02,0-.02-.01-.04-.02-.06,0,0,0-.01,0-.02,0-.02-.01-.04-.02-.06,0,0,0,0,0-.01,0-.02-.01-.04-.02-.06,0,0,0,0,0-.01,0-.02-.01-.04-.02-.07,0,0,0,0,0,0,0-.02-.01-.05-.02-.07,0,0,0,0,0,0,0-.02-.01-.05-.01-.07,0,0,0,0,0,0,0-.03,0-.05-.01-.08,0,0,0,0,0,0,0-.03,0-.05-.01-.08,0,0,0,0,0,0-.11-.92,.2-2.05,.64-3.23,0,0,0,0,0,0,.03-.07,.05-.14,.08-.21,0,0,0,0,0,0,.03-.07,.05-.14,.08-.21,0,0,0,0,0,0,.03-.07,.06-.14,.08-.21,0,0,0,0,0-.01,.03-.07,.06-.14,.09-.21,0,0,0,0,0-.01,.03-.07,.06-.14,.09-.21,0,0,0,0,0-.01,.03-.07,.06-.14,.09-.2,0,0,0-.01,0-.02,.03-.06,.05-.13,.08-.19,0-.02,.02-.04,.02-.06,.02-.04,.04-.08,.05-.13,0-.02,.01-.04,.02-.05,.33-.79,.7-1.66,.94-2.43,0,0,0,0,0,0,0-.02,.01-.05,.02-.07,0,0,0,0,0,0,0-.02,.01-.05,.02-.07,0,0,0,0,0-.01,0-.02,.01-.04,.02-.06,0,0,0,0,0-.01,0-.02,.01-.04,.02-.06,0,0,0,0,0-.01,0-.02,.01-.04,.02-.06,0,0,0-.01,0-.02,0-.02,0-.04,.01-.06,0,0,0-.01,0-.02,0-.02,0-.04,.01-.06,0,0,0-.01,0-.02,0-.02,0-.04,.01-.05,0,0,0-.01,0-.02,0-.02,0-.04,.01-.05,0,0,0-.01,0-.02,0-.02,0-.04,.01-.05,0,0,0-.01,0-.02,0-.02,0-.04,0-.05,0,0,0-.01,0-.02,0-.02,0-.03,0-.05,0,0,0,0,0-.01,0-.02,0-.04,0-.05,0,0,0,0,0-.01,0-.02,0-.04,0-.05,0,0,0,0,0,0,.01-.1,.02-.21,.02-.3,0,0,0,0,0,0,0-.02,0-.03,0-.05,0,0,0,0,0-.01,0-.01,0-.03,0-.04,0,0,0-.01,0-.02,0-.01,0-.02,0-.04,0,0,0-.01,0-.02,0-.01,0-.02,0-.03,0,0,0-.01,0-.02,0-.01,0-.02,0-.03,0,0,0-.01,0-.02,0-.01,0-.02,0-.03,0,0,0-.01,0-.02,0,0,0-.02,0-.03,0,0,0-.01,0-.02,0,0,0-.02,0-.03,0,0,0-.01,0-.02,0,0,0-.02,0-.03,0,0,0-.01,0-.02,0,0,0-.02,0-.02,0,0,0-.01,0-.02,0,0,0-.02-.01-.02,0,0,0-.01,0-.02,0,0,0-.01-.01-.02,0,0,0-.01-.01-.02,0,0,0-.01-.01-.02,0,0,0-.01-.01-.02,0,0,0-.01-.01-.02,0,0,0-.01-.01-.02,0,0,0-.01-.01-.02-.03-.03-.06-.06-.09-.09-.38-.22-1.19-.35-3.21,.21-.16,.39-.32,.78-.48,1.16-.95,2.25-1.94,4.57-1.01,5.96,.05,.08,.11,.16,.18,.23,.93,1.05,1.86,2.09,2.79,3.14,0,0,0,0,0,0,0-.01-.02-.02-.03-.03Z"/>
      <path class="cls-3" d="M194.27,101.46s.03,.03,.04,.05c.02,.02,.04,.04,.05,.05,.01,.01,.03,.03,.04,.04,.03,.02,.05,.05,.08,.07,0,0,0,0,0,0,.01,.01,.03,.03,.05,.04,0,0,.02,.01,.03,.02,.01,0,.02,.02,.03,.03,.02,.01,.03,.03,.05,.04,0,0,.01,.01,.02,.02,.01,0,.02,.02,.03,.03,.02,.01,.04,.03,.06,.04,0,0,.01,0,.02,.01,.01,0,.02,.02,.03,.02,.02,.01,.04,.03,.06,.04,.02,.01,.03,.02,.05,.03,0,0,0,0,0,0,0,0,0,0,.01,0,.04,.02,.07,.04,.11,.06,0,0,0,0,0,0,.04,.02,.08,.04,.12,.06,.01,0,.03,.01,.04,.02,.03,.01,.06,.03,.08,.04,.02,0,.04,.02,.06,.02,.02,0,.05,.02,.07,.03,0,0,.02,0,.03,0,.01,0,.03,.01,.04,.02,.02,0,.04,.02,.06,.02,.04,.01,.08,.03,.12,.04,0,0,.02,0,.03,0,.02,0,.04,.01,.06,.02,.02,0,.03,.01,.05,.01,0,0,.01,0,.02,0,.04,.01,.08,.02,.12,.03,0,0,.02,0,.03,0,.04,0,.07,.02,.11,.02,0,0,.02,0,.02,0,.04,0,.08,.02,.13,.02,.01,0,.02,0,.03,0,0,0,0,0,0,0,.03,0,.06,0,.08,.01,.04,0,.07,.01,.11,.02,.02,0,.04,0,.06,0,0,0,0,0,0,0,.04,0,.08,0,.12,.01,0,0,.02,0,.02,0,0,0,.02,0,.03,0,.06,0,.12,0,.17,.01,.01,0,.03,0,.04,0,.05,0,.09,0,.14,0,.04,0,.09,0,.14,0,0,0,0,0,0,0,0,0,0,0,0,0,.05,0,.1,0,.14,0,.02,0,.03,0,.05,0,.02,0,.04,0,.06,0,.02,0,.03,0,.05,0,.02,0,.03,0,.05,0,.05,0,.1,0,.15,0,0,0,.02,0,.03,0,.04,0,.08,0,.12,0,0,0,0,0,0,0,.02,0,.04,0,.06,0,.04,0,.07,0,.11,0,.02,0,.03,0,.05,0,.02,0,.04,0,.06,0,0,0,0,0,0,0,.05,0,.09,0,.14-.01,.01,0,.03,0,.04,0,.01,0,.03,0,.04,0,.04,0,.08,0,.13-.02,.03,0,.06,0,.09-.01,.04,0,.08-.01,.13-.02,.03,0,.06,0,.08-.01,.05,0,.1-.02,.15-.02,0,0,.02,0,.02,0,.01,0,.02,0,.03,0,.07-.01,.14-.02,.21-.04,0,0,.02,0,.03,0,.02,0,.04,0,.05-.01,.05,0,.09-.02,.14-.03,.02,0,.05,0,.07-.01,0,0,.01,0,.02,0,.04,0,.09-.02,.13-.03,.03,0,.06-.01,.09-.02,.05,0,.09-.02,.14-.03,0,0,0,0,0,0,.03,0,.06-.01,.08-.02,0,0,0,0,0,0,.04,0,.08-.02,.11-.03,.03,0,.07-.02,.1-.02,.04,0,.08-.02,.12-.03,.03,0,.06-.02,.09-.02,.04-.01,.09-.02,.13-.03,.03,0,.06-.01,.09-.02,.07-.02,.14-.04,.22-.06,.02,0,.04-.01,.07-.02,.05-.01,.1-.03,.16-.04,.03,0,.07-.02,.1-.03,.04-.01,.08-.02,.13-.04,.03,0,.06-.02,.09-.03,0,0,0,0,0,0,.04-.01,.08-.02,.13-.04,.03,0,.05-.01,.08-.02,.01,0,.02,0,.03,0,.04-.01,.08-.02,.12-.04,.04-.01,.07-.02,.11-.03,.04-.01,.08-.02,.12-.04,.03,0,.06-.02,.09-.03,0,0,0,0,.01,0,.04-.01,.09-.03,.13-.04,.04-.01,.07-.02,.11-.03,.04-.01,.09-.03,.13-.04,.02,0,.04-.01,.07-.02,.01,0,.03,0,.04-.01,.04-.01,.09-.03,.13-.04,.04-.01,.07-.02,.11-.03,.05-.01,.09-.03,.14-.04,.02,0,.04-.01,.05-.02,.02,0,.04-.01,.05-.02,.04-.01,.09-.03,.13-.05,.03,0,.06-.02,.08-.03,0,0,.01,0,.02,0,.05-.02,.1-.03,.15-.05,.03,0,.06-.02,.09-.03,0,0,0,0,0,0,.05-.02,.11-.04,.16-.06,.03,0,.05-.02,.08-.03,.07-.02,.13-.05,.2-.07,0,0,.01,0,.02,0,.01,0,.02,0,.04-.01,.17-.06,.34-.12,.51-.18,0,0,0,0,.01,0,.02,0,.03-.01,.05-.02,.06-.02,.13-.05,.19-.07,0,0,.02,0,.03,0,.02,0,.04-.01,.05-.02,.06-.02,.12-.04,.18-.06,.03-.01,.06-.02,.08-.03,.06-.02,.12-.04,.18-.06,.02,0,.04-.02,.06-.02,0,0,.02,0,.03,0,.06-.02,.12-.04,.17-.06,0,0,0,0,0,0,.03-.01,.06-.02,.09-.03,.06-.02,.12-.04,.17-.06,0,0,.01,0,.02,0,.02,0,.05-.02,.07-.03,.06-.02,.12-.04,.18-.07,0,0,.01,0,.02,0,.02,0,.05-.02,.07-.03,.06-.02,.12-.04,.18-.07,.01,0,.03-.01,.04-.02,.01,0,.03-.01,.04-.02,.07-.02,.13-.05,.2-.08,0,0,.02,0,.02,0,.02,0,.03-.01,.05-.02,.06-.02,.12-.04,.18-.07,.03-.01,.06-.02,.09-.04,.07-.03,.14-.05,.21-.08,.02,0,.03-.01,.05-.02,.08-.03,.17-.06,.26-.1h0s.01,0,.02,0c.17-.06,.34-.13,.51-.19,.01,0,.02,0,.03-.01,.99-.38,2-.76,3.03-1.14,1.13-.42,2.29-.83,3.48-1.22,.03-.01,.06-.02,.09-.03,.05-.02,.11-.03,.16-.05,0,0,0,0,0,0,.03-.01,.07-.02,.1-.03,.05-.02,.1-.03,.14-.05,0,0,0,0,0,0,.03,0,.05-.02,.08-.02,.06-.02,.11-.03,.17-.05,0,0,0,0,0,0,.03,0,.06-.02,.1-.03,0,0,0,0,0,0,.06-.02,.12-.03,.17-.05,0,0,0,0,0,0,0,0,0,0,0,0,1.49-.43,2.58-.57,3.36-.42,0,0,0,0,0,0,0,0,.02,0,.02,0,.04,0,.08,.02,.11,.02,0,0,.02,0,.03,0h0s.05,.01,.07,.02c.01,0,.02,0,.03,0,0,0,0,0,0,0,.05,.01,.09,.03,.14,.05h0s.04,.01,.06,.02h0s.02,0,.03,.01h0s.04,.02,.06,.03h0s.02,0,.03,.01h0s.03,.02,.04,.02c.01,0,.02,.01,.04,.02,.03,.02,.06,.03,.08,.05,0,0,0,0,0,0h0s.03,.02,.04,.03c0,0,0,0,0,0h0s.03,.02,.05,.04h0s0,0,0,0c.02,.02,.04,.03,.06,.05,0,0,0,0,0,0,0,0,0,0,.01,.01,.01,.01,.03,.02,.04,.04,0,0,0,0,0,0,0,0,0,0,.01,0,.01,.01,.03,.02,.04,.04,0,0,0,0,0,0,0,0,0,0,0,0,0,0,0,0,0,0,.01,.01,.02,.02,.03,.03,0,0,0,0,.01,.01l-2.79-3.14s-.03-.04-.05-.06c0,0-.02-.02-.02-.02-.01-.01-.02-.02-.03-.03,0,0,0,0,0,0-.01-.01-.03-.02-.04-.04,0,0,0,0-.01-.01-.02-.02-.04-.03-.06-.05-.02-.01-.03-.02-.05-.04,0,0-.01,0-.02-.01-.01,0-.02-.01-.03-.02,0,0,0,0,0,0,0,0,0,0,0,0-.03-.02-.05-.03-.08-.05-.03-.01-.05-.03-.08-.04,0,0-.02,0-.03-.01-.02,0-.04-.02-.06-.03-.01,0-.02,0-.03-.01-.02,0-.04-.02-.06-.02-.01,0-.02,0-.03-.01,0,0-.01,0-.02,0-.01,0-.02,0-.03-.01-.02,0-.03-.01-.05-.02-.02,0-.03-.01-.05-.02-.02,0-.03,0-.05-.01-.02,0-.04,0-.05-.01-.02,0-.04,0-.06-.01-.02,0-.04,0-.06-.01-.02,0-.04,0-.06-.01,0,0-.02,0-.02,0-.01,0-.03,0-.04,0-.02,0-.03,0-.05,0-.02,0-.05,0-.07,0-.02,0-.03,0-.05,0-.02,0-.05,0-.08,0-.01,0-.03,0-.04,0-.03,0-.06,0-.09,0-.01,0-.03,0-.04,0,0,0,0,0,0,0-.04,0-.07,0-.11,0,0,0-.02,0-.03,0-.04,0-.08,0-.11,0-.01,0-.02,0-.03,0-.04,0-.08,0-.12,0-.01,0-.02,0-.03,0-.04,0-.07,0-.11,0-.01,0-.02,0-.03,0-.02,0-.05,0-.07,0,0,0-.02,0-.03,0-.03,0-.05,0-.08,0-.02,0-.05,0-.07,0-.03,0-.05,0-.08,0-.02,0-.05,0-.07,0-.03,0-.05,0-.08,.01-.02,0-.05,0-.07,.01-.03,0-.06,0-.08,.01-.02,0-.05,0-.07,.01-.06,.01-.12,.02-.18,.03-.02,0-.04,0-.06,.01-.03,0-.07,.01-.1,.02-.02,0-.05,0-.07,.01-.04,0-.07,.02-.11,.02-.02,0-.03,0-.05,.01,0,0-.02,0-.03,0-.02,0-.04,0-.06,.01-.05,.01-.09,.02-.14,.03-.02,0-.04,0-.06,.01-.04,.01-.09,.02-.13,.03-.02,0-.04,0-.06,.01-.05,.01-.1,.02-.14,.04-.02,0-.03,0-.05,.01-.05,.01-.11,.03-.17,.05-.02,0-.03,0-.05,.01-.06,.02-.12,.03-.17,.05-.01,0-.03,0-.04,.01-.06,.02-.11,.03-.17,.05-.01,0-.02,0-.04,.01-.06,.02-.13,.04-.19,.06-.02,0-.03,0-.05,.01-.06,.02-.13,.04-.2,.06-.01,0-.03,0-.04,.01-.07,.02-.14,.05-.21,.07-2.28,.76-4.43,1.57-6.51,2.36-.34,.13-.68,.26-1.01,.38-.01,0-.03,.01-.04,.02-.07,.03-.14,.05-.21,.08-.02,0-.04,.01-.06,.02-.07,.02-.13,.05-.2,.07-.02,0-.05,.02-.07,.03-.06,.02-.12,.05-.19,.07-.03,0-.05,.02-.08,.03-.06,.02-.12,.04-.18,.07-.03,.01-.06,.02-.08,.03-.06,.02-.12,.04-.17,.06-.03,.01-.06,.02-.09,.03-.06,.02-.11,.04-.17,.06-.03,.01-.06,.02-.09,.03-.06,.02-.11,.04-.17,.06-.03,.01-.06,.02-.09,.03-.06,.02-.11,.04-.17,.06-.03,.01-.06,.02-.08,.03-.06,.02-.11,.04-.17,.06-.03,0-.05,.02-.08,.03-.06,.02-.12,.04-.17,.06-.01,0-.03,.01-.04,.02-.14,.05-.27,.1-.41,.14-.01,0-.02,0-.04,.01-.05,.02-.1,.03-.14,.05-.03,.01-.07,.02-.1,.04-.04,.02-.09,.03-.13,.05-.04,.01-.08,.03-.12,.04-.04,.01-.08,.03-.13,.04-.04,.01-.08,.03-.12,.04-.04,.01-.08,.03-.12,.04-.04,.01-.08,.03-.12,.04-.04,.01-.08,.03-.12,.04-.04,.01-.08,.03-.12,.04-.04,.01-.08,.03-.12,.04-.04,.01-.08,.03-.12,.04-.04,.01-.08,.02-.11,.04-.04,.01-.08,.03-.12,.04-.04,.01-.07,.02-.11,.04-.04,.01-.08,.03-.12,.04-.04,.01-.07,.02-.11,.03-.04,.01-.08,.03-.13,.04-.04,.01-.07,.02-.11,.03-.04,.01-.09,.03-.13,.04-.03,0-.07,.02-.1,.03-.04,.01-.09,.03-.13,.04-.03,0-.06,.02-.1,.03-.05,.01-.09,.03-.14,.04-.03,0-.06,.02-.08,.02-.06,.02-.12,.03-.18,.05-.01,0-.03,0-.04,.01-.07,.02-.15,.04-.22,.06-.02,0-.05,.01-.07,.02-.05,.01-.1,.02-.15,.04-.03,0-.06,.01-.09,.02-.04,.01-.09,.02-.13,.03-.03,0-.06,.01-.09,.02-.04,0-.08,.02-.12,.03-.03,0-.06,.01-.08,.02-.05,.01-.09,.02-.14,.03-.03,0-.06,.01-.09,.02-.04,0-.09,.02-.13,.03-.03,0-.06,.01-.09,.02-.05,0-.09,.02-.14,.03-.03,0-.05,.01-.08,.02-.07,.01-.14,.02-.21,.04-.02,0-.04,0-.05,0-.05,0-.11,.02-.16,.02-.03,0-.05,0-.08,.01-.04,0-.09,.01-.13,.02-.03,0-.06,0-.08,.01-.04,0-.08,.01-.12,.02-.03,0-.05,0-.08,0-.04,0-.09,0-.13,.01-.03,0-.05,0-.08,0-.01,0-.02,0-.04,0-.04,0-.09,0-.13,.01-.01,0-.03,0-.04,0-.11,0-.21,.01-.32,.02-.01,0-.02,0-.03,0-.04,0-.09,0-.13,0-.01,0-.02,0-.03,0-.1,0-.2,0-.3,0-.04,0-.09,0-.13,0-.02,0-.03,0-.05,0-.06,0-.12,0-.17-.01-.02,0-.03,0-.05,0-.04,0-.08,0-.12-.01-.02,0-.04,0-.06,0-.04,0-.07,0-.11-.02-.03,0-.06,0-.09-.01-.01,0-.02,0-.03,0-.04,0-.09-.02-.13-.02,0,0-.02,0-.02,0-.03,0-.06-.01-.09-.02,.24,.93,.59,1.64,1.07,2.17Z"/>
      <path class="cls-3" d="M218.1,107.45c.04,.06,.08,.11,.13,.16,.02,.02,.04,.04,.06,.06,0,0,0,0,0,0,0,0,0,0,0,0,0,0,.02,.02,.03,.02,.02,.01,.03,.03,.05,.04,.01,.01,.03,.02,.04,.03,.02,.01,.04,.03,.06,.04,0,0,0,0,0,0,0,0,0,0,0,0,.02,.02,.05,.03,.07,.04,.03,.02,.06,.03,.09,.05,.03,.01,.05,.03,.08,.04,.01,0,.02,.01,.04,.02,0,0,0,0,0,0,.03,.01,.06,.02,.09,.03,.02,0,.04,.01,.06,.02,.02,0,.03,.01,.05,.02,.06,.02,.11,.04,.17,.05,0,0,0,0,0,0,.05,.01,.11,.03,.16,.04,.02,0,.04,0,.05,0,.02,0,.04,0,.06,.01,0,0,0,0,0,0,.01,0,.03,0,.04,0,.04,0,.07,0,.11,.01,.03,0,.06,0,.09,0,.04,0,.07,0,.11,0,.02,0,.03,0,.05,0,0,0,.01,0,.02,0,0,0,.02,0,.02,0,.05,0,.09,0,.14,0,.03,0,.05,0,.08,0,.06,0,.11,0,.17-.01,.01,0,.02,0,.04,0,0,0,0,0,0,0,0,0,0,0,0,0,.08,0,.16-.02,.25-.03,.02,0,.04,0,.07-.01,.06-.01,.13-.02,.19-.04,.01,0,.03,0,.04,0,0,0,.01,0,.02,0,0,0,.02,0,.03,0,.03,0,.07-.02,.1-.03,.03,0,.07-.02,.1-.03,.03,0,.07-.02,.1-.03,.04-.01,.07-.02,.11-.03,.03-.01,.07-.02,.1-.03,.04-.01,.07-.03,.11-.04,.03-.01,.06-.02,.1-.04,.02,0,.03-.01,.05-.02,0,0,0,0,0,0,.02,0,.04-.02,.06-.02,.03-.01,.06-.02,.08-.03,.04-.02,.08-.03,.12-.05,.03-.01,.05-.02,.08-.04,.04-.02,.08-.04,.13-.06,.03-.01,.05-.02,.08-.04,.04-.02,.09-.04,.13-.07,.02-.01,.05-.02,.07-.04,.05-.03,.1-.05,.15-.08,.02-.01,.04-.02,.05-.03,.07-.04,.14-.08,.21-.12,0,0,0,0,.01,0,.06-.04,.13-.08,.19-.12,.02-.01,.05-.03,.07-.04,.03-.02,.07-.04,.1-.06,0,0,.02-.01,.02-.02,0,0,0,0,0,0,.08-.05,.17-.11,.25-.17,.02-.01,.04-.03,.06-.04,.07-.05,.13-.09,.2-.14,.03-.02,.06-.04,.08-.06,.06-.04,.12-.09,.18-.14,.02-.02,.05-.04,.07-.05,.08-.06,.16-.13,.25-.19,.02-.01,.03-.03,.05-.04,.07-.05,.13-.11,.2-.16,.03-.02,.06-.05,.08-.07,.06-.05,.12-.1,.18-.15,.03-.02,.05-.04,.08-.07,.08-.07,.16-.14,.24-.21,.01-.01,.02-.02,.03-.03,.07-.06,.14-.13,.21-.19,.03-.03,.05-.05,.08-.08,.06-.05,.11-.1,.17-.16,.03-.03,.05-.05,.08-.08,.07-.07,.15-.14,.22-.21,0,0,.02-.02,.03-.03,.07-.07,.15-.15,.22-.22,.03-.03,.05-.05,.08-.08,.05-.05,.11-.11,.16-.16,.03-.03,.05-.05,.08-.08,.06-.07,.13-.13,.19-.2,.01-.01,.03-.03,.04-.04,.07-.08,.15-.16,.22-.24,.02-.03,.05-.05,.07-.08,.05-.06,.1-.11,.15-.17,.03-.03,.05-.06,.08-.09,.06-.06,.11-.13,.17-.19,.02-.02,.03-.04,.05-.05,0,0,0,0,0,0,.07-.08,.14-.16,.21-.24,.02-.03,.04-.05,.06-.08,.05-.06,.1-.11,.15-.17,.02-.03,.05-.06,.07-.09,.05-.06,.1-.12,.15-.18,.02-.02,.03-.04,.05-.06,.06-.08,.13-.16,.19-.24,.02-.02,.04-.05,.06-.07,.05-.06,.09-.12,.14-.17,.02-.03,.04-.06,.07-.08,.05-.06,.09-.12,.13-.17,.02-.02,.03-.04,.05-.06,.06-.08,.12-.15,.18-.23,.01-.02,.03-.03,.04-.05,.05-.06,.09-.12,.13-.18,.02-.02,.04-.05,.05-.07,.04-.05,.08-.11,.12-.16,.02-.02,.03-.04,.05-.06,.05-.07,.11-.14,.16-.22,0-.01,.02-.03,.03-.04,.04-.06,.08-.12,.12-.17,.02-.02,.03-.05,.05-.07,.04-.05,.07-.1,.1-.15,.01-.02,.03-.04,.04-.06,.05-.07,.09-.13,.14-.2,0,0,0-.01,.01-.02,.04-.06,.08-.11,.11-.17,.01-.02,.03-.04,.04-.06,.03-.04,.06-.09,.09-.13,.01-.02,.02-.04,.03-.05,.04-.06,.07-.11,.11-.17,0,0,0,0,0,0h0s.34,.18,.34,.18l.34,.18-2.79-3.14-.67-.37c-.04,.06-.07,.11-.11,.17-.01,.02-.02,.03-.03,.05-.03,.05-.06,.09-.09,.14-.01,.02-.02,.03-.03,.05-.08,.13-.17,.26-.27,.39,0,.01-.02,.03-.03,.04-.04,.06-.08,.11-.12,.17-.01,.02-.02,.03-.04,.05-.05,.07-.1,.14-.15,.21,0,0,0,0,0,0-.05,.08-.11,.15-.17,.23,0,.01-.02,.02-.03,.04-.05,.06-.09,.13-.14,.19-.01,.02-.03,.03-.04,.05-.05,.07-.11,.14-.16,.22,0,0,0,.01-.01,.02-.06,.08-.12,.16-.19,.25,0,0-.02,.02-.02,.03-.05,.07-.11,.14-.17,.21-.01,.02-.03,.04-.04,.05-.06,.07-.11,.14-.17,.22,0,.01-.02,.02-.03,.03-.07,.08-.14,.17-.21,.26,0,0-.01,.01-.02,.02-.06,.08-.13,.15-.19,.23-.02,.02-.03,.04-.05,.06-.06,.07-.12,.14-.18,.21-.01,.01-.02,.03-.03,.04-.07,.09-.15,.17-.22,.26,0,0,0,0,0,0-.07,.08-.14,.16-.21,.24-.02,.02-.03,.04-.05,.06-.06,.07-.12,.14-.19,.21-.01,.02-.03,.03-.04,.05-.15,.17-.31,.34-.47,.5-.02,.02-.03,.04-.05,.05-.06,.07-.13,.13-.19,.2-.02,.02-.03,.03-.05,.05-.16,.16-.32,.32-.49,.48-.02,.02-.04,.04-.06,.05-.07,.06-.13,.12-.2,.19-.02,.02-.04,.04-.06,.06-.17,.15-.33,.3-.5,.45-.02,.02-.04,.03-.05,.05-.07,.06-.13,.12-.2,.17-.02,.02-.04,.04-.06,.05-.08,.06-.15,.13-.23,.19,0,0-.01,.01-.02,.02-.09,.07-.17,.14-.26,.2-.02,.01-.04,.03-.05,.04-.07,.05-.14,.1-.2,.15-.02,.02-.04,.03-.07,.05-.07,.05-.15,.11-.22,.16-.01,0-.02,.02-.04,.03-.09,.06-.17,.12-.26,.17-.03,.02-.07,.04-.1,.06-.03,.02-.07,.04-.1,.06-.04,.02-.08,.05-.12,.07-.05,.03-.09,.05-.14,.08-.05,.03-.1,.06-.15,.09-.03,.02-.06,.03-.08,.05-.04,.02-.08,.04-.12,.07-.03,.02-.06,.03-.09,.05-.04,.02-.08,.04-.12,.06-.03,.01-.06,.03-.09,.04-.04,.02-.08,.04-.11,.05-.03,.01-.06,.03-.09,.04-.04,.02-.07,.03-.11,.05-.03,.01-.06,.03-.09,.04-.04,.01-.07,.03-.11,.04-.03,.01-.07,.03-.1,.04-.04,.01-.07,.03-.11,.04-.03,.01-.07,.02-.1,.03-.03,.01-.07,.02-.1,.03-.03,.01-.07,.02-.1,.03-.03,0-.07,.02-.1,.03-.03,0-.07,.02-.1,.03-.01,0-.03,0-.04,0-.28,1.02-.35,1.92,.05,2.51Z"/>
      <path class="cls-3" d="M193.61,101.56s-.06-.08-.09-.11c0,0,0,0,0-.01-.03-.04-.06-.08-.09-.12-.01-.02-.02-.03-.04-.05-.02-.03-.04-.05-.05-.08-.01-.02-.03-.04-.04-.06-.01-.02-.03-.04-.04-.07-.02-.02-.03-.05-.05-.07-.01-.02-.02-.04-.03-.05-.06-.11-.12-.22-.18-.33,0,0,0-.01,0-.02-.02-.04-.04-.08-.06-.12,0,0,0-.01,0-.02-.4-.86-.65-1.93-.75-3.23,0-.02,0-.03,0-.05l.73,.14-2.79-3.14-.73-.14c.15,2.01,.65,3.49,1.53,4.48,.93,1.05,1.86,2.09,2.79,3.14-.02-.02-.03-.04-.05-.05-.01-.01-.02-.02-.03-.04Z"/>
    </g>
    <path class="cls-3" d="M230.94,99.63c-.27,.42-1.94,2.91-4.08,5.12-3.21,3.33-5.99,4.55-8.24,3.64-.11-.05-.22-.1-.32-.15-.07-.04-.14-.08-.21-.13-.23-.16-.41-.34-.56-.56-.9-1.35,.08-3.66,1.02-5.89h0c.37-.88,.79-1.87,1.02-2.71,.27-1.01,.23-1.61-.15-1.89h0s0,0,0,0c-.69-.39-2.14-.21-4.45,.56-2.28,.76-4.42,1.57-6.49,2.35h0c-6.03,2.29-10.8,4.09-13.67,2.5-.11-.06-.22-.13-.32-.2-1.3-.9-2.03-2.53-2.23-5l.57,.11c.18,2.33,.82,3.84,1.95,4.62,.08,.06,.16,.11,.25,.16,2.55,1.41,7.42-.43,13.07-2.57,2.07-.79,4.21-1.6,6.51-2.36,1.29-.43,2.31-.68,3.12-.76,.8-.08,1.41,0,1.85,.24,.05,.03,.09,.05,.13,.08,.02,.01,.03,.02,.05,.03,1.15,.86,.36,2.72-.63,5.08h0c-.87,2.07-1.86,4.41-1.08,5.59,.1,.15,.22,.27,.36,.37,.04,.03,.09,.06,.13,.08,.07,.04,.14,.07,.22,.1,.94,.38,2.04,.29,3.27-.27,1.04-.47,2.17-1.27,3.38-2.39,2.08-1.92,3.99-4.43,5.02-6.03l.53,.29m.11-.02l-.67-.37c-1.89,2.97-7.68,10.31-11.61,8.72-.07-.03-.14-.06-.21-.1-.04-.02-.08-.05-.12-.08-.14-.09-.25-.21-.34-.34-.77-1.15,.22-3.47,1.09-5.52,1.01-2.39,1.81-4.28,.61-5.18-.02-.01-.03-.02-.05-.04-.05-.03-.09-.06-.14-.09-.91-.5-2.48-.34-5.04,.51-2.28,.76-4.43,1.57-6.51,2.36-5.63,2.13-10.49,3.97-13,2.58-.08-.05-.16-.1-.24-.15-1.11-.77-1.74-2.28-1.91-4.62l-.73-.14c.19,2.53,.93,4.21,2.28,5.14,.11,.07,.22,.14,.33,.21,2.91,1.62,7.69-.2,13.74-2.49,2.07-.79,4.22-1.6,6.49-2.35,2.89-.96,3.93-.82,4.38-.57,.77,.57-.15,2.76-.9,4.51-.95,2.25-1.94,4.57-1.01,5.96,.15,.23,.35,.42,.58,.59,.07,.05,.14,.09,.21,.13,.1,.06,.22,.11,.33,.16,2.29,.93,5.09-.3,8.32-3.65,2.36-2.44,4.11-5.17,4.13-5.19h0Z"/>
  </g>
</svg>