<?xml version="1.0" encoding="utf-8"?>
<!-- Generator: Adobe Illustrator 21.1.0, SVG Export Plug-In . SVG Version: 6.00 Build 0)  -->
<svg version="1.1" id="Layer_1" xmlns="http://www.w3.org/2000/svg" xmlns:xlink="http://www.w3.org/1999/xlink" x="0px" y="0px"
	 viewBox="0 0 49.6 49.6" style="enable-background:new 0 0 49.6 49.6;" xml:space="preserve">
<style type="text/css">
	.st0{fill:#FFD100;}
</style>
<path class="st0" d="M24.8,41.5c9.2,0,16.7-7.5,16.7-16.7S34,8.1,24.8,8.1S8.1,15.6,8.1,24.8S15.6,41.5,24.8,41.5z"/>
<path class="st0" d="M27.4,5.1l-2.1-3.2c-0.2-0.3-0.7-0.3-1,0l-2.1,3.2C22,5.5,22.3,6,22.7,6h4.2C27.3,6,27.6,5.5,27.4,5.1z"/>
<path class="st0" d="M27.4,44.5l-2.1,3.2c-0.2,0.3-0.7,0.3-1,0l-2.1-3.2c-0.2-0.4,0-0.9,0.5-0.9h4.2C27.3,43.6,27.6,44.1,27.4,44.5z
	"/>
<path class="st0" d="M4.8,22.2l-3.2,2.1c-0.3,0.2-0.3,0.7,0,1l3.2,2.1c0.4,0.2,0.9,0,0.9-0.5v-4.2C5.7,22.3,5.2,22,4.8,22.2z"/>
<path class="st0" d="M44.8,22.2l3.2,2.1c0.3,0.2,0.3,0.7,0,1l-3.2,2.1c-0.4,0.2-0.9,0-0.9-0.5v-4.2C43.9,22.3,44.4,22,44.8,22.2z"/>
<path class="st0" d="M7.6,38.4l-0.8,3.8c-0.1,0.4,0.3,0.8,0.7,0.7l3.8-0.8c0.4-0.1,0.6-0.6,0.3-1l-3-2.9C8.3,37.8,7.7,37.9,7.6,38.4
	z"/>
<path class="st0" d="M38.3,7.7l3.8-0.8c0.4-0.1,0.8,0.3,0.7,0.7L42,11.4c-0.1,0.4-0.6,0.6-1,0.3l-2.9-3C37.7,8.4,37.8,7.8,38.3,7.7z
	"/>
<path class="st0" d="M11.7,8L7.9,7.2C7.5,7.1,7.1,7.5,7.2,7.9L8,11.7c0.1,0.4,0.6,0.6,1,0.3l3-3C12.3,8.7,12.1,8.1,11.7,8z"/>
<path class="st0" d="M41.9,38.3l0.8,3.8c0.1,0.4-0.3,0.8-0.7,0.7L38.2,42c-0.4-0.1-0.6-0.6-0.3-1l3.1-3
	C41.3,37.7,41.8,37.9,41.9,38.3z"/>
</svg>
